<svg xmlns="http://www.w3.org/2000/svg" viewBox="0 0 48 48">
	<g fill="currentColor">
		<path d="M13,10c-.552,0-1-.448-1-1V2c0-.552,.448-1,1-1s1,.448,1,1v7c0,.552-.448,1-1,1Z"></path>
		<path d="M35,10c-.552,0-1-.448-1-1V2c0-.552,.448-1,1-1s1,.448,1,1v7c0,.552-.448,1-1,1Z"></path>
		<path d="M27.425,41H4V16H44v12.787c.731,.479,1.402,1.042,2,1.679V6c0-.552-.448-1-1-1h-7v3.83c0,1.624-1.216,3.081-2.839,3.166-1.73,.091-3.161-1.285-3.161-2.996V5h-16v3.83c0,1.624-1.216,3.081-2.839,3.166-1.73,.091-3.161-1.285-3.161-2.996V5H3c-.552,0-1,.448-1,1V42c0,.552,.448,1,1,1H28.21c-.327-.639-.59-1.309-.785-2Z" fill="currentColor"></path>
		<path d="M38,29c-4.971,0-9,4.029-9,9s4.029,9,9,9,9-4.029,9-9-4.029-9-9-9Zm5,10h-4v4c0,.553-.448,1-1,1s-1-.447-1-1v-4h-4c-.552,0-1-.448-1-1s.448-1,1-1h4v-4c0-.552,.448-1,1-1s1,.448,1,1v4h4c.552,0,1,.448,1,1s-.448,1-1,1Z"></path>
	</g>
</svg>