<svg viewBox="0 0 270 270" fill="none" xmlns="http://www.w3.org/2000/svg">
	<g>
		<path fill-rule="evenodd" clip-rule="evenodd" d="M142.69 131.15C142.15 131.52 141.63 131.9 141.13 132.32L141.09 132.34C140.11 133.15 139.24 134.09 138.57 135.17C139.65 134.88 140.84 135.11 141.72 135.81C141.79 135.87 141.76 135.98 141.67 136C138.92 136.69 136.45 138.39 134.78 140.67C134.659 140.935 134.538 141.201 134.417 141.467C133.849 142.713 133.282 143.96 132.68 145.18V229.52C132.68 230.39 131.97 231.1 131.1 231.1C130.23 231.1 129.52 230.39 129.52 229.52V132.38C129.2 132.91 128.871 133.439 128.541 133.969L128.54 133.97L128.6 134.03C128.6 134.03 123.81 141.57 121.78 147.97C121.78 147.97 125.3 174.76 115.73 190.11C109.586 199.958 106.991 206.842 104.812 212.624C103.596 215.848 102.51 218.729 101.01 221.59C101.01 221.59 96.4 177.66 120.17 147.86C120.17 147.86 121.23 145.28 122.7 142.15C118.22 147.66 113.22 152.25 107.98 155.28C100.18 159.78 93.01 167.17 90.56 169.83C89.98 170.45 89.81 171.09 89.94 171.5C91.46 176.44 90.15 180.32 87.65 185.65C85.18 190.92 85.73 197.1 85.82 197.99C81.83 193.24 73.48 184.19 62.64 177.3C63.28 177.36 68.33 177.72 71.96 174.24C77.3 169.13 83.97 168.71 85.75 168.69C86.04 168.69 86.35 168.52 86.67 168.18C88.39 166.32 95.09 159.55 110.04 149.17C115.7 145.24 120.4 139.74 124.19 134.07C120.1 136.63 114.11 139.71 107.13 141.16C102.26 142.17 97.98 143.35 90.75 147.33C89.4028 148.071 88.9695 149.404 88.4818 150.905C87.8438 152.869 87.1128 155.119 84.12 156.7C84.12 156.7 82.9 150.8 78.11 147.2C78.11 147.2 80.13 144.79 86.89 144.93C88.6828 144.964 90.1525 144.188 92.1674 143.125C93.0971 142.634 94.1429 142.082 95.39 141.52C98.57 140.09 103.62 138.62 107.08 137.73C112.31 136.38 121.27 133.67 127.05 129.49C127.94 127.96 128.77 126.44 129.53 124.96V44.32C129.53 43.45 130.24 42.74 131.11 42.74C131.98 42.74 132.69 43.45 132.69 44.32V138.96C133.8 137.11 135.02 135.3 136.01 134.39C138.52 132.09 140.96 125.92 140.96 125.92L140.45 129.49C140.45 129.49 141.86 128.76 143.73 127.76C144.49 126.4 145.04 124.91 145.33 123.38C145.44 122.75 145.52 122.12 145.55 121.48C145.333 120.637 144.436 119.525 143.339 118.166C140.792 115.01 137.174 110.526 138.53 105.01C140.213 98.1916 146.423 92.4432 146.98 91.9275C147.005 91.9039 147.019 91.8913 147.02 91.89C147.04 91.86 147.14 91.81 147.18 91.81L147.19 91.8V91.81C147.22 91.82 147.25 91.84 147.27 91.87C147.295 91.915 147.318 91.96 147.34 92.005C147.363 92.05 147.385 92.095 147.41 92.14C147.449 92.2068 147.502 92.2954 147.566 92.4042C148.34 93.7103 150.835 97.9227 152.7 102.28C153.39 103.88 154.27 107.14 154.44 109.13C154.58 110.71 154.13 112.24 153.41 113.63C151.784 116.753 149.353 119.459 146.995 122.083L146.89 122.2C146.85 122.6 146.79 123 146.72 123.4C146.708 123.468 146.695 123.535 146.682 123.603C146.601 124.038 146.518 124.479 146.57 124.92C146.62 125.45 146.87 125.74 147.2 125.88C149.01 124.88 150.76 123.88 151.87 123.17C153.325 122.235 154.778 121.3 156.23 120.365C157.683 119.43 159.135 118.495 160.59 117.56C161.3 117.1 163.25 115.68 163.51 115.42C164.404 114.514 165.635 113.922 166.862 113.332C167.681 112.937 168.497 112.544 169.21 112.06C169.34 112.03 169.46 111.97 169.57 111.91C168.59 111.84 167.49 111.73 166.62 111.33C166.395 111.191 166.069 111.074 165.797 110.976C165.657 110.926 165.531 110.881 165.44 110.84C164.773 110.54 163.987 110.601 163.251 110.659C163.105 110.67 162.961 110.682 162.82 110.69C161.81 110.75 160.81 110.69 159.86 110.33C159.07 110.03 157.92 109.57 157.9 108.57C157.883 107.747 158.104 106.837 158.305 106.006C158.341 105.858 158.377 105.712 158.41 105.57C158.65 104.52 158.95 103.48 159.31 102.47C159.63 101.55 160 100.65 160.41 99.77C161.17 97.5 161.45 95.17 160.37 92.91C159.759 91.6318 158.841 90.5625 157.922 89.4928C157.065 88.4954 156.208 87.4977 155.6 86.33C154.34 83.9 154.87 80.34 156.65 78.29C157.41 77.41 158.45 76.73 159.48 76.22C159.74 76.09 160.28 76 160.65 75.94C163.211 75.6831 163.413 76.161 163.781 77.0321C163.872 77.246 163.972 77.4837 164.12 77.74C164.61 78.59 166.22 81.53 166.51 82.22C166.89 83.13 167.15 84.47 167.26 85.43C169.31 93.96 171.62 97.26 175.4 102.08C176.466 103.443 176.745 104.891 177.054 106.499C177.11 106.79 177.167 107.087 177.23 107.39C177.31 107.64 177.39 108.15 177.32 108.37C177.2 109.31 176.71 110.03 176.03 110.59C174.474 112.46 171.931 113.634 169.308 114.844C166.587 116.1 163.779 117.396 161.9 119.55C161.948 119.571 161.994 119.591 162.04 119.61C162.192 119.676 162.331 119.736 162.47 119.79C163.61 119.9 164.67 120.58 165.23 121.62C165.27 121.71 165.17 121.78 165.09 121.76C163.67 121.33 162.24 121.27 160.83 121.44C159.72 121.84 158.63 122.33 157.58 122.86C156.446 123.431 155.339 124.051 154.232 124.672C153.845 124.888 153.458 125.105 153.07 125.32L148.36 127.95L143.24 130.81C143.15 130.865 143.058 130.922 142.965 130.98C142.873 131.037 142.78 131.095 142.69 131.15ZM146.733 97.7624C146.74 96.7545 146.744 96.15 146.72 96.15V96.14C146.58 96.15 144.95 109.37 145.82 113.2C145.904 113.564 145.992 113.928 146.081 114.292C146.268 115.059 146.454 115.824 146.59 116.57C146.59 116.186 146.63 115.639 146.682 114.932C146.812 113.174 147.014 110.428 146.85 106.74C146.698 103.207 146.721 99.7221 146.733 97.7624ZM196.21 53.7C195.44 53.23 194.83 52.57 194.24 51.9V51.92L194.15 51.8166C193.59 51.1696 193.022 50.5142 192.31 50.03C192.24 49.99 192.24 49.91 192.29 49.85C193.36 48.54 195.1 47.85 196.77 47.99C197.68 48.07 198.53 48.41 199.3 48.9C199.775 49.2004 200.223 49.5425 200.671 49.8841C201.043 50.1679 201.414 50.4513 201.8 50.71C202.63 51.27 203.53 51.68 204.55 51.71C205.08 51.7267 205.603 51.6689 206.127 51.6109C206.543 51.5649 206.96 51.5189 207.38 51.51C208.33 51.49 209.25 51.73 210.06 52.23C210.87 52.72 211.54 53.42 212.07 54.21C213.119 55.7924 213.334 57.4538 213.571 59.2762V59.2763L213.572 59.2833L213.572 59.285L213.572 59.2854C213.588 59.4062 213.604 59.5278 213.62 59.65C213.66 59.9 213.73 61.24 213.62 61.13C213.444 60.956 213.27 60.7829 213.097 60.6114L213.093 60.6073C210.946 58.4731 209.03 56.569 206.19 55.94C205.772 55.8461 205.224 55.7712 204.68 55.6969C204.182 55.6288 203.687 55.5613 203.3 55.48C202.48 55.31 201.66 55.19 200.84 55.07C199.25 54.83 197.6 54.56 196.21 53.7ZM215.81 73.13C215.71 73.48 215.6 73.83 215.47 74.18C215.08 75.27 215.1 76.57 215.19 77.76C215.41 80.71 214.39 83.04 211.73 84.31C210.456 84.9245 209.096 85.3587 207.734 85.7936L207.734 85.7937C206.968 86.0382 206.202 86.2829 205.45 86.56C205.02 86.72 204.46 87.03 204.32 87.41C203.23 90.4 201.76 93.12 199.17 95.08C199.283 95.3823 199.409 95.6725 199.532 95.956C199.78 96.526 200.016 97.0691 200.11 97.63C200.49 100.09 201.89 101.37 204.33 101.49C205.1 101.53 206.03 101.57 206.65 101.21C211.75 98.24 216.74 95.11 220.04 89.98C221.25 88.1 221.93 86.07 222.37 83.87C222.7 82.96 222.89 82 222.93 81.04C222.96 80.2709 222.856 79.5185 222.751 78.762L222.751 78.7617C222.716 78.5052 222.68 78.2483 222.65 77.99C222.59 77.49 222.55 76.98 222.57 76.47C222.6 75.94 222.72 75.42 222.88 74.92C223.027 74.4566 223.209 74.0038 223.392 73.5508L223.392 73.5505C223.608 73.0163 223.823 72.4819 223.98 71.93C224.46 70.24 224.31 68.41 223.65 66.8C222.96 65.13 221.7 63.75 220.09 62.92C218.45 62.08 216.54 61.81 214.74 62.22C214.68 62.23 214.64 62.3 214.66 62.36C215.02 63.63 215.28 64.93 215.47 66.24C215.79 68.51 215.88 70.82 215.85 73.11L215.81 73.13ZM207.47 80.17C208.85 78.77 209.54 77.31 209.22 75.41C209.01 74.12 208.84 72.82 208.77 71.52C208.64 69.06 207.18 67.32 204.88 66.69C204.222 66.5084 203.612 66.166 202.999 65.8224C202.634 65.6173 202.267 65.4119 201.89 65.24C201.39 65.0185 200.865 64.8481 200.339 64.6777L200.339 64.6776C200.129 64.6095 199.918 64.5414 199.71 64.47C198.816 64.2913 199.091 64.723 199.293 65.0413L199.309 65.0659L199.33 65.1C199.619 65.4579 199.897 65.8256 200.175 66.1931C200.744 66.9445 201.312 67.6951 201.97 68.36L201.971 68.3612C206.95 73.4 206.99 73.4405 207.47 80.16V80.17ZM196.401 90.5458L196.393 90.5329C196.057 89.9829 195.715 89.4221 195.36 88.84C196.717 88.1938 198.028 87.5736 199.359 86.9437C200.5 86.4039 201.656 85.8568 202.87 85.28C202.01 88.6 201.2 91.71 198.59 94.14C197.849 92.9184 197.141 91.7581 196.401 90.5458ZM73.86 159.78C74.0491 159.782 74.2531 159.789 74.4717 159.797C76.3803 159.863 79.4042 159.969 83.37 157.08C83.37 157.08 81.22 150.16 77.19 147.86C77.19 147.86 73.53 149.34 71.6 155.5C70.49 159.06 71.48 159.76 73.86 159.78ZM86.65 200.92C80.61 192.96 71.2 184.43 65.57 180.55C62.68 178.55 59.9 176.85 57.58 175.5C52.35 173.65 44.96 172.03 36.08 172.79C35.87 172.56 35.57 172.42 35.24 172.41C34.58 172.39 34.03 172.91 34.01 173.57C33.99 174.23 34.51 174.78 35.17 174.8C35.64 174.81 36.04 174.56 36.25 174.17C38.69 173.92 45.17 173.62 53.85 175.86C48.6 174.74 41.96 174.14 34.55 175.29C34.32 175.08 34.02 174.96 33.69 174.97C33.03 175 32.52 175.55 32.54 176.21C32.57 176.87 33.12 177.38 33.78 177.36C34.26 177.34 34.66 177.04 34.83 176.62C36.55 176.28 40.31 175.73 45.57 176.08C43.55 176.15 41.43 176.33 39.23 176.67C39.01 176.46 38.7 176.34 38.37 176.35C37.71 176.38 37.2 176.93 37.22 177.59C37.25 178.25 37.8 178.76 38.46 178.74C38.94 178.72 39.34 178.42 39.51 178C41.81 177.54 47.7 176.73 55.98 178.15C50.64 177.49 43.62 177.51 35.73 179.74C35.48 179.56 35.16 179.47 34.84 179.53C34.19 179.64 33.75 180.25 33.85 180.9C33.96 181.55 34.57 181.99 35.22 181.89C35.69 181.81 36.06 181.47 36.18 181.03C38.85 180.15 46.58 178.15 57.85 179.69C52.37 179.37 45.44 179.79 37.98 182.25C37.72 182.08 37.4 182.01 37.08 182.07C36.43 182.2 36.02 182.84 36.15 183.48C36.28 184.13 36.92 184.54 37.56 184.41C38.03 184.31 38.38 183.95 38.48 183.51C38.88 183.36 39.41 183.17 40.04 182.97C39.72 183.24 39.56 183.67 39.64 184.11C39.77 184.76 40.4 185.18 41.05 185.05C41.52 184.96 41.87 184.59 41.97 184.16C42.7904 184.012 43.6752 183.818 44.6656 183.6L44.6659 183.6C46.6209 183.171 48.987 182.651 52.08 182.22C47.95 182.98 43.4 184.32 38.74 186.57C38.46 186.43 38.14 186.4 37.82 186.51C37.2 186.73 36.87 187.41 37.08 188.03C37.3 188.65 37.98 188.98 38.6 188.77C39.05 188.61 39.35 188.21 39.39 187.76C41.92 186.4 49.48 182.96 61.31 182.65C55.42 183.18 47.19 184.9 38.84 189.84C38.55 189.73 38.22 189.73 37.92 189.86C37.32 190.13 37.05 190.84 37.32 191.44C37.59 192.04 38.29 192.31 38.9 192.04C39.34 191.84 39.6 191.42 39.61 190.96C41.99 189.41 49.08 185.43 60.57 184.07C55.5 185.22 49.54 187.33 43.57 191.16C43.28 191.06 42.95 191.07 42.65 191.22C42.06 191.51 41.81 192.23 42.1 192.82C42.39 193.41 43.11 193.66 43.7 193.37C44.13 193.16 44.38 192.72 44.37 192.27C46.14 191.03 50.57 188.28 57.62 186.25C52.67 188.17 46.88 191.24 41.38 196.14C41.08 196.09 40.75 196.14 40.48 196.34C39.94 196.72 39.81 197.47 40.19 198C40.57 198.54 41.32 198.67 41.85 198.29C42.24 198.01 42.41 197.54 42.33 197.1C44.42 195.07 50.88 189.56 62.45 186.01C58.38 187.86 53.73 190.3 48.8 193.49C48.5 193.41 48.17 193.45 47.89 193.62C47.32 193.96 47.14 194.69 47.48 195.26C47.82 195.83 48.55 196.01 49.12 195.67C49.53 195.42 49.74 194.97 49.69 194.52C50.4153 194.105 51.1852 193.626 52.0463 193.089C53.3459 192.28 54.8534 191.341 56.73 190.3C53.29 192.63 49.7 195.65 46.36 199.52C46.05 199.51 45.74 199.61 45.5 199.83C45.01 200.28 44.98 201.03 45.43 201.52C45.88 202.01 46.63 202.04 47.12 201.59C47.47 201.26 47.58 200.78 47.44 200.35C49.14 198.2 54.27 192.49 64.04 187.64C59.23 190.87 53.31 195.97 48.56 203.55C48.25 203.58 47.96 203.73 47.75 203.99C47.34 204.51 47.42 205.26 47.94 205.67C48.46 206.08 49.21 206 49.62 205.48C49.92 205.1 49.95 204.61 49.75 204.2C51.21 201.65 55.94 194.46 66.24 187.79C62.17 191.22 57.17 196.02 52.11 202.38C51.8 202.4 51.5 202.54 51.29 202.79C50.86 203.29 50.92 204.05 51.42 204.47C51.92 204.9 52.68 204.84 53.1 204.34C53.41 203.98 53.46 203.48 53.28 203.07C53.8559 202.428 54.4537 201.703 55.1256 200.889L55.1262 200.889C55.3641 200.6 55.6112 200.301 55.87 199.99C55.78 200.39 55.89 200.83 56.21 201.13C56.69 201.58 57.45 201.56 57.9 201.08C58.13 200.84 58.23 200.53 58.22 200.22C60.18 198.55 61.92 196.82 63.48 195.08C59.4267 200.24 56.294 203.163 53.953 205.347C53.2272 206.024 52.5775 206.63 52 207.21C51.58 207.05 51.08 207.13 50.74 207.46C50.27 207.92 50.25 208.68 50.71 209.15C51.17 209.62 51.93 209.64 52.4 209.18C52.64 208.95 52.76 208.64 52.76 208.33C60 201.8 65.03 195.5 68.22 190.91C62.2955 200.516 57.9032 205.01 54.8823 208.101C54.186 208.813 53.5626 209.451 53.01 210.06C52.58 209.92 52.09 210.02 51.76 210.37C51.31 210.85 51.33 211.61 51.81 212.06C52.29 212.51 53.05 212.49 53.5 212.01C53.73 211.77 53.83 211.46 53.82 211.15C56.03 208.96 58.02 206.81 59.79 204.74C58.32 206.96 56.83 209.39 55.37 212.04C55.07 212.11 54.8 212.3 54.63 212.58C54.29 213.15 54.47 213.88 55.04 214.22C55.61 214.56 56.34 214.38 56.68 213.81C56.93 213.4 56.89 212.9 56.64 212.52C57.0723 211.828 57.5138 211.061 58.0067 210.205C60.022 206.705 62.8952 201.714 69.5 194.29C67.79 197.85 66.02 200.57 64.56 202.52C64.14 202.44 63.7 202.58 63.41 202.94C63.12 203.3 63.08 203.77 63.25 204.16C62.79 204.71 62.39 205.15 62.08 205.48C61.64 205.4 61.17 205.58 60.89 205.98C60.52 206.52 60.65 207.27 61.2 207.64C61.74 208.01 62.49 207.88 62.86 207.33C63.05 207.06 63.11 206.73 63.05 206.43C63.5 205.91 63.93 205.39 64.35 204.87C64.7 204.87 65.04 204.72 65.27 204.43C65.48 204.17 65.56 203.85 65.52 203.55C68.11 200.97 70.25 198.3 72.03 195.67C67.26 204.31 62.02 208.9 59.97 210.47C59.54 210.33 59.05 210.43 58.72 210.78C58.27 211.26 58.29 212.02 58.77 212.47C59.25 212.92 60.01 212.9 60.46 212.42C60.69 212.18 60.8 211.87 60.79 211.56C66.58 206.69 70.5 201.25 73.11 196.53C69.28 204.38 64.97 208.81 63.2 210.43C62.76 210.32 62.28 210.47 61.98 210.84C61.57 211.36 61.65 212.11 62.17 212.52C62.69 212.93 63.44 212.85 63.85 212.33C64.06 212.07 64.14 211.75 64.1 211.45C69.16 206.41 72.52 201.01 74.73 196.28C69.74 208.12 63.12 214.21 60.77 216.1C60.34 215.97 59.85 216.08 59.53 216.44C59.09 216.93 59.13 217.68 59.62 218.13C60.11 218.57 60.86 218.53 61.31 218.04C61.53 217.79 61.63 217.48 61.62 217.17C68.66 210.98 72.8 203.97 75.18 198.6C72 207.27 67.88 212.33 66.2 214.14C65.76 214.07 65.3 214.25 65.03 214.65C64.67 215.19 64.81 215.93 65.36 216.29C65.9 216.65 66.64 216.51 67 215.96C67.18 215.69 67.24 215.37 67.17 215.07C72.13 209.23 75.06 203.12 76.81 198.02C73.51 209.27 68.31 215.66 66.36 217.75C65.91 217.68 65.45 217.86 65.18 218.26C64.81 218.81 64.96 219.55 65.51 219.92C66.06 220.29 66.8 220.14 67.17 219.59C67.36 219.31 67.41 218.99 67.35 218.69C73.8 211.12 76.89 203.1 78.38 197.36C76.53 206.5 73.17 212.16 71.78 214.21C71.33 214.21 70.91 214.46 70.7 214.89C70.42 215.48 70.68 216.18 71.27 216.46C71.86 216.74 72.56 216.48 72.84 215.89C72.98 215.59 72.98 215.27 72.88 214.98C75.87 210.15 77.74 205.35 78.9 201.02C76.92 210.58 73.33 216.45 71.85 218.56C71.4 218.56 70.96 218.8 70.75 219.23C70.46 219.82 70.71 220.54 71.3 220.83C71.89 221.12 72.61 220.87 72.9 220.28C73.05 219.98 73.06 219.65 72.95 219.36C76.72 213.46 78.81 207.56 79.96 202.53C77.91 213.68 73.6 220.39 71.94 222.65C71.49 222.63 71.05 222.86 70.83 223.29C70.53 223.88 70.76 224.6 71.34 224.9C71.92 225.2 72.65 224.97 72.95 224.39C73.1 224.09 73.12 223.77 73.02 223.47C78.25 215.68 80.47 207.84 81.4 202.04C80.41 213.19 76.83 220.19 75.41 222.58C74.96 222.6 74.54 222.88 74.36 223.33C74.12 223.94 74.41 224.64 75.03 224.88C75.64 225.12 76.34 224.83 76.58 224.21C76.7 223.9 76.69 223.57 76.56 223.29C77.16 222.18 77.7 221.07 78.19 219.97C78.22 220.48 78.58 220.93 79.11 221.06C79.75 221.21 80.39 220.81 80.54 220.17C80.62 219.85 80.55 219.52 80.39 219.26C82.21 214.17 83.05 209.31 83.34 204.98C83.29 214.37 81.08 220.62 80.1 222.93C79.66 223.01 79.28 223.35 79.16 223.81C79 224.45 79.39 225.1 80.03 225.26C80.67 225.42 81.32 225.03 81.48 224.39C81.56 224.07 81.5 223.74 81.34 223.48C83.04 218.96 83.95 214.61 84.38 210.65C84.12 218.92 82.2 224.46 81.31 226.6C80.87 226.69 80.49 227.02 80.38 227.49C80.23 228.13 80.62 228.78 81.26 228.93C81.9 229.08 82.55 228.69 82.7 228.05C82.78 227.73 82.72 227.4 82.55 227.14C85.11 220.16 85.8 213.75 85.72 208.6C87.05 218.62 85.47 225.57 84.73 228.08C84.3 228.22 83.96 228.59 83.9 229.06C83.82 229.71 84.28 230.31 84.93 230.4C85.58 230.48 86.18 230.02 86.27 229.37C86.31 229.04 86.22 228.73 86.03 228.48C88.54 218.38 87.53 209.47 86.21 203.67C89.27 215.07 88.29 223.55 87.8 226.41C87.4 226.59 87.12 226.98 87.1 227.44C87.07 228.1 87.59 228.66 88.24 228.68C88.9 228.71 89.46 228.19 89.48 227.54C89.49 227.21 89.37 226.9 89.16 226.68C90.95 215.31 88.61 206.16 86.64 200.94L86.65 200.92ZM41.48 182.88C41.33 182.78 41.15 182.72 40.97 182.69C43.31 182.02 46.78 181.29 51.23 181.03C48.2 181.46 44.94 182.05 41.48 182.88ZM57.4 199.1C57.12 199.01 56.82 199.03 56.55 199.15C58.64 196.69 61.49 193.58 66.04 189.67C62.39 194.9 58.96 197.89 57.4 199.1ZM79.14 218.69C78.95 218.73 78.78 218.82 78.63 218.94C79.75 216.3 80.59 213.72 81.22 211.27C80.55 214.87 79.67 217.39 79.14 218.69ZM225.44 89.59C225.85 90.59 226.19 91.62 226.52 92.65C227.18 94.66 227.73 96.73 227.79 98.85C227.82 100.02 227.69 101.19 227.35 102.31C227.32 102.39 227.21 102.43 227.15 102.36C225.95 100.97 224.09 100.43 222.3 100.45C220.37 100.47 218.54 101.17 216.8 101.95C216.385 102.14 215.97 102.333 215.555 102.525C215.14 102.718 214.725 102.91 214.31 103.1C214.23 103.15 213.85 103.31 213.79 103.33C213.72 103.36 209.71 102.93 207.81 102.45C207.647 102.422 207.479 102.373 207.377 102.344C207.335 102.332 207.305 102.323 207.29 102.32C207.06 102.264 207.183 102.196 207.283 102.14C207.309 102.126 207.334 102.112 207.35 102.1C207.379 102.079 207.573 101.964 207.891 101.776C209.568 100.783 214.678 97.7567 216.99 95.84C219.76 93.55 222.03 90.72 223.46 86.97C223.445 86.9333 223.528 86.7405 223.592 86.589L223.592 86.5884C223.616 86.5337 223.637 86.4845 223.65 86.45C223.667 86.5127 223.844 86.796 224.082 87.1792C224.528 87.8967 225.192 88.9643 225.44 89.59ZM191.71 74.45C191.96 75.33 192.21 76.21 192.58 77.52C192.74 77.3078 192.913 77.1126 193.067 76.9389L193.068 76.9382L193.068 76.9379L193.068 76.9379C193.357 76.6127 193.579 76.3633 193.52 76.22C193.21 75.45 192.66 74.59 192.26 74.09C191.78 73.63 191.54 73.47 191.72 74.45H191.71ZM190.69 83.16C188.63 80.37 187.46 77.55 187.06 74.41C186.84 72.69 188.04 70.76 189.82 69.92C189.82 70.3593 189.777 70.8233 189.734 71.2829L189.734 71.2831V71.2833V71.2835V71.2837V71.2839C189.722 71.4098 189.711 71.5353 189.7 71.66C189.767 72.6103 190.181 73.2821 190.587 73.9395C190.851 74.3681 191.112 74.7905 191.27 75.28C191.79 76.91 191.74 78.65 191.49 80.33C191.39 81.0398 191.24 81.7396 191.09 82.4394L191.09 82.44C191.06 82.8 191.02 83.17 190.97 83.54C190.91 83.46 190.69 83.16 190.69 83.16ZM200.06 75.81C200.05 75.23 199.9 74.67 199.68 74.14C199.45 73.56 199.14 72.99 198.75 72.5C198.54 72.23 198.3 71.99 198.02 71.8C197.842 71.6736 197.654 71.567 197.467 71.4612C197.329 71.3829 197.192 71.3051 197.06 71.22C196.75 71.03 196.48 70.81 196.25 70.53C196.086 70.3288 195.933 70.1109 195.783 69.897C195.732 69.8239 195.681 69.7513 195.63 69.68C195.23 69.14 194.74 68.68 194.12 68.42C193.57 68.19 192.95 68.16 192.39 68.39C191.85 68.61 191.45 69.05 191.3 69.62C191.234 69.8746 191.216 70.0145 191.178 70.3002C191.17 70.3623 191.161 70.4314 191.15 70.51C191.068 70.8127 191.087 71.2092 191.107 71.6446L191.107 71.6484L191.108 71.6533L191.108 71.6595L191.108 71.6671L191.114 71.8023C191.116 71.8479 191.118 71.8938 191.12 71.94C193.1 71.18 194.8 71.49 196.28 73.1C197.66 74.6 198.22 76.24 197.61 78.38C197.5 78.66 197.67 78.63 197.81 78.6C198.46 78.5 199.06 78.15 199.48 77.63C199.89 77.12 200.07 76.48 200.06 75.83V75.81ZM185.16 66.23C187.89 66.17 189.95 65.73 191.73 63.43V63.47C193.98 60.56 195.65 60.87 197.09 64.2C198.16 66.67 199.61 68.81 201.63 70.6C202.32 71.22 202.95 71.92 203.56 72.63C207.53 77.29 204.61 84.38 199.86 85.57C199.082 85.7661 198.346 86.1085 197.607 86.452C197.254 86.6164 196.899 86.7811 196.54 86.93C196.36 87 195.87 87.16 196.16 86.77C196.433 86.4337 196.699 86.0893 196.965 85.7445C197.537 85.0027 198.111 84.2591 198.76 83.59C201.64 80.61 202.25 74.75 200.02 71.52C198.63 69.5 196.65 67.84 194.43 67.15C193.29 66.8 191.84 67.07 190.81 67.45C188.68 68.25 186.82 69.69 185.93 71.89C185.382 73.2434 184.4 74.0936 183.384 74.9728C183.176 75.1525 182.967 75.3334 182.76 75.52C181.004 77.0971 178.87 77.6624 176.726 78.2306L176.725 78.2308C176.477 78.2967 176.228 78.3625 175.98 78.43C174.71 78.77 173.85 77.94 173.99 76.66C174.4 72.98 176.58 70.35 179.45 68.41C181.11 67.28 183.23 66.27 185.16 66.23ZM196.01 107.63C196.02 107.625 196.04 107.617 196.068 107.606C196.265 107.529 196.821 107.312 196.32 107.11C195.966 106.953 195.618 106.779 195.272 106.607C194.495 106.22 193.726 105.837 192.91 105.65C190.15 105.02 188.13 103.54 186.25 101.43C184.45 99.41 182.25 97.64 179.96 96.19C175.92 93.63 173.79 89.88 172.5 85.5C172.272 84.7236 172.308 83.8616 172.343 83.0225V83.022V83.0215V83.0212V83.0208C172.349 82.8662 172.355 82.7124 172.36 82.56C172.389 81.5885 172.468 80.617 172.548 79.6455C172.58 79.257 172.611 78.8685 172.64 78.48C172.75 78 172.68 77.71 172.21 78.11C171.86 78.415 171.503 78.7149 171.147 79.0149L171.146 79.0163C170.171 79.837 169.197 80.6576 168.34 81.58C168.076 81.8684 168.227 82.5982 168.35 83.193L168.35 83.1934L168.351 83.1989C168.377 83.3238 168.401 83.4426 168.42 83.55C169.38 88.88 171.36 93.31 175.41 98.66C176.739 100.41 177.328 102.567 177.919 104.729C178.239 105.903 178.56 107.078 179 108.19C179.26 108.85 179.88 109.77 180.45 109.85C185.84 110.66 191.08 110.21 196 107.64L196.01 107.63ZM171.862 62.2202C173.071 61.6125 174.28 61.005 175.33 60.14V60.16C176.35 59.3199 177.038 58.1907 177.724 57.0648C178.606 55.6175 179.485 54.1756 181.06 53.36C182.38 52.67 183.71 52.74 185.03 53.36C185.275 53.4775 185.531 53.6288 185.794 53.7847L185.794 53.7848C186.046 53.9343 186.306 54.0879 186.57 54.22C187.32 54.13 188.1 53.86 188.69 53.5C190.59 52.34 192.37 52.59 193.93 53.75C196.18 55.41 198.68 55.87 201.35 56.09C202.91 56.22 204.63 56.38 205.96 57.11C209.87 59.24 212.64 62.54 213.81 66.86C214.237 68.4553 214.163 70.2101 214.09 71.9192V71.9193V71.9196C214.08 72.1709 214.069 72.4213 214.06 72.67C214.028 73.4656 213.898 74.2571 213.768 75.0472L213.768 75.0475C213.613 75.9853 213.459 76.9212 213.47 77.86C213.53 81.98 209.45 85.74 204.71 85.27C205.031 84.8263 205.314 84.368 205.588 83.9234C206.161 82.9954 206.696 82.1277 207.46 81.58C210.14 79.65 211.18 77.48 210.45 74.23C210.29 73.54 210.23 72.81 210.26 72.11C210.4 68.69 208.4 66.11 205.03 65.39C204.947 65.3724 204.859 65.356 204.768 65.3392L204.767 65.339L204.766 65.3388L204.765 65.3387L204.765 65.3387L204.765 65.3386C204.342 65.2603 203.869 65.173 203.68 64.91C202.41 63.13 200.74 62.96 198.83 63.54L198.776 63.4486C198.63 63.1988 198.505 62.9854 198.38 62.78C196.29 59.21 193.95 58.92 191.01 61.89C190.949 61.9515 190.885 62.0125 190.821 62.0739L190.821 62.0742L190.821 62.0746C190.563 62.3226 190.3 62.5756 190.14 62.88C189.23 64.56 187.81 64.73 186.07 64.66C184.7 64.6 183.24 64.84 181.93 65.28C179.06 66.24 176.7 67.97 174.79 70.35C174.6 70.65 174.43 70.97 174.26 71.29C173.86 72.0666 173.61 72.9065 173.361 73.7448C173.068 74.7308 172.775 75.7144 172.24 76.59C171.931 77.0893 171.545 77.321 171.117 77.5772C170.894 77.711 170.66 77.8514 170.42 78.04C170.302 78.1335 170.153 78.247 169.977 78.3805C169.57 78.6897 169.022 79.1062 168.4 79.63L168.363 79.6613L168.305 79.7107C167.959 80.0065 167.578 80.3328 167.23 79.93C165.45 77.87 164.43 75.19 164.48 72.46C164.53 69.49 165.87 66.57 168.07 64.58C169.193 63.5621 170.528 62.891 171.862 62.2202ZM199.22 79.48C198.679 79.392 198.152 79.3082 197.633 79.2259C196.562 79.0558 195.531 78.892 194.5 78.71C193.4 78.52 192.59 78.51 192.59 80.06C192.59 80.7328 192.453 81.4025 192.315 82.0725L192.315 82.0727C192.209 82.5877 192.103 83.1029 192.06 83.62C192.019 84.11 192.106 84.6095 192.203 85.1678L192.203 85.1681L192.203 85.1686L192.203 85.1693C192.247 85.4196 192.293 85.6817 192.33 85.96C195.99 84.53 198.56 82.8 199.21 79.48H199.22ZM195.45 73.56C196.54 74.72 197.35 75.93 196.64 77.79C195.91 77.54 195.26 77.32 194.41 77.04C194.97 74.72 193.47 73.72 191.77 72.78C193.35 72.03 194.45 72.49 195.45 73.56ZM213.324 104.897L213.324 104.897C211.54 105.864 209.758 106.829 208.05 107.91C205.06 109.81 202.06 109.85 198.93 108.59C198.03 108.23 197.36 108.29 196.49 108.75C192.92 110.64 189.01 111.27 185.04 111.57C184.656 111.597 184.279 111.64 183.825 111.691L183.66 111.71C183.829 112.115 183.987 112.513 184.143 112.904L184.143 112.904C184.494 113.788 184.831 114.636 185.24 115.44C186.36 117.63 189.16 118.18 190.95 116.5C192.14 115.39 193.05 115.46 194.21 116.5C198.27 120.14 205.96 126.69 210.8 124.25C211.86 123.72 212.86 122.96 213.71 122.13C215.208 120.677 215.836 118.447 216.496 116.108C217.607 112.168 218.805 107.918 224.39 106.55C223.952 106.143 223.532 105.746 223.124 105.359C222.22 104.503 221.369 103.698 220.48 102.94C219.47 102.08 218.39 102.02 217.16 102.75V102.76C215.899 103.502 214.612 104.199 213.325 104.896L213.325 104.896L213.325 104.896L213.325 104.897L213.324 104.897ZM183.207 76.6163C183.959 76.1235 184.708 75.6329 185.46 75.14L185.47 75.15C185.475 75.1628 185.483 75.1793 185.493 75.1988C185.534 75.2864 185.605 75.4365 185.63 75.6C186.42 80.16 188.73 83.92 191.85 87.21C194.61 90.13 196.53 93.57 198.17 97.19C198.449 97.8075 198.644 98.4602 198.864 99.195L198.864 99.1964C198.975 99.5679 199.092 99.9605 199.23 100.38C198.462 100.216 197.727 100.049 197.013 99.8869L197.013 99.8869C195.506 99.5445 194.095 99.2239 192.67 99C190.36 98.63 188.46 97.6 187.19 95.69C184.625 91.8462 182.11 87.9688 179.688 84.2335L179.685 84.2299L179.655 84.183C178.849 82.9407 178.054 81.7142 177.27 80.51C179.329 79.1561 181.257 77.8936 183.161 76.6465L183.184 76.6311L183.198 76.6218L183.207 76.6163ZM209.554 105.155L209.554 105.155L209.554 105.155C209.973 104.988 210.394 104.821 210.8 104.63C210.954 104.556 211.106 104.48 211.256 104.404C211.554 104.254 211.84 104.11 212.1 104.01C212.27 103.94 212.32 103.85 212.19 103.84C211.578 103.78 210.965 103.728 210.352 103.675L210.352 103.675L210.351 103.675L210.351 103.675C208.613 103.526 206.878 103.378 205.17 103.06C203.289 102.715 201.422 102.292 199.555 101.869L199.555 101.869C197.253 101.347 194.95 100.825 192.62 100.45C188.54 99.79 186.15 97.07 184.05 94.01C182.841 92.2449 181.743 90.4042 180.644 88.5613C179.826 87.1886 179.007 85.8148 178.14 84.47C177.374 83.2805 176.508 82.1497 175.644 81.02C175.222 80.4687 174.8 79.9176 174.39 79.36C174.344 79.299 174.302 79.2398 174.263 79.1853C173.996 78.8105 173.886 78.6561 173.86 79.66C173.27 86 175.6 90.95 180.91 94.57C183.68 96.46 186.33 98.46 188.47 101.15C189.244 102.126 190.507 102.748 191.715 103.344L191.717 103.344C191.944 103.456 192.17 103.568 192.39 103.68C193.115 104.053 193.874 104.361 194.633 104.668C195.601 105.061 196.568 105.453 197.46 105.98C200.77 107.95 203.98 108.43 207.37 106.19L207.35 106.21C208.022 105.764 208.787 105.46 209.554 105.155ZM191.25 118.79C191.25 118.79 193.98 122.38 192.18 127.23H192.17C190.37 132.09 185.91 133.57 185.91 133.57C185.91 133.57 186.67 131.69 185.95 127.14C185.565 124.706 184.266 123.731 182.781 122.616C181.49 121.647 180.057 120.572 178.96 118.34C176.6 113.53 179.32 111.33 179.32 111.33C181.47 111.07 182.46 111.85 182.91 113.65C182.952 113.803 183.03 114.025 183.114 114.262L183.114 114.262C183.189 114.475 183.268 114.701 183.33 114.9C183.7 116.16 184.23 117.12 184.94 117.8C185.08 117.93 185.23 118.05 185.37 118.16C186.28 118.82 187.45 119.13 188.97 119.11C189.21 119.11 191.25 118.79 191.25 118.79ZM162.75 74.44C163.21 74.36 163.48 73.98 163.35 73.51C162.89 71.85 162.9 70.11 163.29 68.45C163.98 65.5 165.93 62.84 168.64 61.45C169.297 61.1131 170.028 60.8191 170.777 60.5183C173.073 59.5957 175.53 58.6085 176.48 56.12C176.87 54.45 176.58 52.58 175.54 51.19C174.49 49.79 172.73 49.01 170.98 49.22C169.16 49.44 167.92 50.68 167.15 52.28C166.965 52.6671 166.799 53.0622 166.635 53.4552L166.634 53.4556C166.106 54.7172 165.586 55.958 164.45 56.85C163.289 57.7637 161.933 58.3264 160.576 58.8894C159.082 59.5095 157.587 60.1299 156.35 61.22C153.95 63.34 153.11 67.05 154.4 69.99C155.78 73.13 159.36 75.03 162.74 74.44H162.75Z" fill="currentColor" />
		<path d="M64.93 123.87V121.3L62.87 121.09C60.26 120.88 58.4 120.44 57.26 119.75C56.13 119.07 55.56 118.07 55.56 116.77C55.56 116.02 55.73 115.14 56.07 114.15C56.41 113.16 56.82 112.04 57.3 110.81L62.85 97.44H91.86L97.21 110.81C98.17 113.14 98.65 114.99 98.65 116.37C98.65 117.75 98.14 118.8 97.11 119.56C96.08 120.31 94.37 120.83 91.97 121.1L89.91 121.31V123.88L106.37 123.57L119.12 123.88V121.31L117.06 121.1C114.31 120.83 112.15 119.9 110.58 118.32C109 116.74 107.53 114.28 106.16 110.92L81.89 50.54H78.39L53.5 110.92C52.47 113.39 51.39 115.33 50.26 116.73C49.13 118.14 47.79 119.15 46.25 119.76C44.71 120.38 42.74 120.86 40.34 121.2L39.41 121.3V123.87L51.86 123.56L64.92 123.87H64.93ZM77.68 61.54L90.64 94.15H64.21L77.68 61.54Z" fill="currentColor" />
		<path d="M196.46 148.04C190.05 145.57 182.22 144.34 172.96 144.34H158.46L143.24 144.03V146.6L145.3 146.81C147.7 147.08 149.53 147.44 150.8 147.89C152.07 148.34 152.94 149.28 153.42 150.72C153.9 152.16 154.14 154.59 154.14 158.02V203.69C154.14 207.05 153.88 209.47 153.37 210.94C152.86 212.42 151.96 213.38 150.7 213.82C149.43 214.27 147.6 214.63 145.2 214.9L143.14 215.11V217.68L158.36 217.37H178.11C183.12 217.37 187.9 216.6 192.46 215.06C197.02 213.52 201.08 211.2 204.65 208.12C208.21 205.03 211.03 201.19 213.08 196.6C215.14 192.01 216.17 186.66 216.17 180.55C216.17 171.98 214.49 165.04 211.13 159.72C207.77 154.41 202.88 150.52 196.47 148.05L196.46 148.04ZM198.67 206.1C193.59 211.55 186.87 214.28 178.51 214.28H169.77C167.71 214.28 166.2 213.7 165.24 212.53C164.28 211.36 163.66 209.87 163.39 208.05C163.12 206.23 162.98 204.33 162.98 202.34V147.42H175.94C183.41 147.42 189.36 148.74 193.79 151.38C198.21 154.02 201.4 157.83 203.36 162.8C205.31 167.77 206.29 173.75 206.29 180.75C206.29 192.2 203.75 200.65 198.68 206.1H198.67Z" fill="currentColor" />
	</g>
</svg>