<?xml version="1.0" encoding="utf-8"?>
<!-- Generator: Adobe Illustrator 27.7.0, SVG Export Plug-In . SVG Version: 6.00 Build 0)  -->
<svg version="1.1" xmlns="http://www.w3.org/2000/svg" xmlns:xlink="http://www.w3.org/1999/xlink" x="0px" y="0px"
	 viewBox="0 0 283.5 283.5" style="enable-background:new 0 0 283.5 283.5;" xml:space="preserve">
<style type="text/css">
	.st0{display:none;}
	.st1{display:inline;}
	.st2{fill:#010101;}
	.st3{display:inline;fill:#010101;}
</style>
<g id="Outline" class="st0">
	<rect x="365.5" y="472.9" style="display:inline;fill:none;" width="61.8" height="32.7"/>
	
		<text transform="matrix(1 0 0 1 377.9715 490.3204)" style="display:inline;fill:#F15A29; font-family:'Baskervville-Regular'; font-size:24px;">DA</text>
	<g class="st1">
		<path d="M141.7,3.5c76.3,0,138.2,61.9,138.2,138.2s-61.9,138.2-138.2,138.2S3.5,218.1,3.5,141.7S65.4,3.5,141.7,3.5 M141.7,0.5
			c-37.7,0-73.2,14.7-99.8,41.4C15.2,68.6,0.5,104,0.5,141.7s14.7,73.2,41.4,99.8c26.7,26.7,62.1,41.4,99.8,41.4
			s73.2-14.7,99.8-41.4c26.7-26.7,41.4-62.1,41.4-99.8s-14.7-73.2-41.4-99.8C214.9,15.2,179.4,0.5,141.7,0.5L141.7,0.5z"/>
	</g>
	<path class="st1" d="M377.4,258.8"/>
	<path class="st1" d="M377.4,258.8"/>
	<g class="st1">
		<g>
			<path class="st2" d="M374.1,494.2C374.1,494.2,374.1,494.3,374.1,494.2C374.1,494.3,374.1,494.3,374.1,494.2
				C374.1,494.3,374.1,494.3,374.1,494.2z"/>
		</g>
		<g>
			<path class="st2" d="M319.2,585.5c5.3-4.5,9-6.6,13.7-11.9c1.8-2.1,3.1-4.4,4.2-6.8c0.3-0.1,0.6-0.4,0.8-0.7
				c0.8-0.9,1.5-2.1,2.5-2.9c1.8-1.5,4.2-2.6,6.5-3.6c1.3-0.6,2.2-0.7,3.6,0c1.4,0.8,2.6,1.7,4.2,2.2c1.6,0.4,3.6,0.5,5.2,0.4
				c1.6-0.1,3.2-0.2,4.8-0.5c1.9-0.4,3.7-1,5.3-2c1.6-1,3.3-2,5-2.6c3.2-1.1,6.5-1.9,9.8-1.6c-1.8-0.6-3.2-2.1-4.9-2.9
				c-2.1-1.1-4.1-2.4-6.2-3.3c-3.6-1.5-7.9-1.5-11.7-1.4c-1.7,0.1-3.6,0.3-5.2,0.8c-1.9,0.6-3.1,1.9-4.3,3.3
				c-2.3,2.7-3.9,6.8-7.5,7.8c-1.3,0.4-2.7,0.4-4,0.6c-0.6,0.1-1.1,0.2-1.7,0.2c0.5-1.3,0.9-2.6,1.4-3.9c0.7-1.9,1.4-3.7,2.1-5.6
				c0.6-0.2,1.1-0.9,1.6-1.3c0.6-0.4,1.3-0.5,1.8-1c-0.5-0.4-1.5-0.9-2.3-1c2.2-6.6,4.2-13.2,6.1-19.9c0.1,0.8,0.2,1.6,0.4,2.5
				c0.5,2.4,1.9,4.5,2.4,7c0.4,1.9,0.7,4.9-0.1,6.7c2.9-2,4.8-5.7,6-9.3c-0.2-0.2-0.4-0.3-0.6-0.5c-0.3-0.3-0.7-0.6-1-0.9l-0.4-0.5
				l-0.1-0.1l-0.1-0.1l-0.1-0.1l-0.2-0.3l-0.2-0.3c-0.1-0.1-0.1-0.2-0.2-0.3c-0.1-0.2-0.2-0.4-0.3-0.6c-0.2-0.4-0.3-0.8-0.4-1.1
				c-0.1-0.4-0.2-0.7-0.3-1c-0.1-0.3-0.2-0.6-0.3-0.8c-0.1-0.2-0.2-0.5-0.3-0.6c-0.2-0.3-0.3-0.5-0.3-0.5s0.2,0.2,0.4,0.4
				c0.1,0.1,0.3,0.3,0.4,0.6c0.2,0.2,0.3,0.5,0.5,0.8c0.2,0.3,0.3,0.6,0.5,0.9c0.2,0.3,0.3,0.7,0.5,1c0.1,0.2,0.2,0.3,0.3,0.5
				c0.1,0.2,0.2,0.3,0.3,0.5l0.2,0.2l0,0.1l0,0l0.1,0.1l0.4,0.5c0.3,0.3,0.6,0.6,0.9,0.9c0.3,0.3,0.6,0.6,0.9,0.8
				c0.3,0.3,0.6,0.5,0.9,0.7c0.3,0.2,0.6,0.4,0.8,0.6c0.3,0.2,0.5,0.3,0.7,0.5c0.2,0.1,0.3,0.2,0.4,0.3c1,0.3,1.9,0.6,2.9,0.6
				c0.2-1.2,0.3-2.7,0.2-3.8c0.4,0.5,0.8,1.1,1.1,1.6c0.2,0.4,0.2,1.4,0.4,1.7c0.7,0.8,2.3,0.9,3.1,1c0.8,0.1,1.6,0.1,2.3,0
				c0,0,0.1,0,0.1,0c0.3-0.1,0.6-0.3,1-0.4c0.2-0.1,0.4-0.2,0.5-0.3c0.2-0.1,0.4-0.2,0.6-0.3c0.4-0.3,0.8-0.5,1.2-0.9
				c0.4-0.3,0.8-0.7,1.2-1c0.4-0.4,0.8-0.7,1.2-1.1c0.4-0.4,0.7-0.8,1.1-1.2c0.3-0.4,0.7-0.8,1-1.2c0.3-0.4,0.6-0.8,0.9-1.2
				c0.3-0.4,0.5-0.7,0.8-1.1c0.5-0.7,0.9-1.2,1.2-1.6c0.3-0.4,0.5-0.6,0.5-0.6s-0.1,0.3-0.3,0.7c-0.2,0.4-0.5,1.1-0.9,1.8
				c-0.2,0.4-0.4,0.8-0.7,1.2c-0.2,0.4-0.5,0.8-0.8,1.3c-0.3,0.4-0.6,0.9-1,1.3c-0.4,0.4-0.7,0.9-1.1,1.2c-0.4,0.4-0.8,0.8-1.2,1.1
				c-0.4,0.4-0.9,0.7-1.3,1c-0.1,0.1-0.3,0.2-0.4,0.3c1,0.6,2.1,1,3.2,1.1c1.9,0.3,4.1,0.2,6-0.3c1.2-0.4,4.7-3.4,6-1.9
				c0.4-2.7,2.4-4.8,1.9-7.7c-0.2-1.3-0.7-2.4-1.4-3.3c3.3,0,5.7-0.9,7.1-4.8c1.6-4.3,0-9,2-13.3c0.3-0.6,1.3-1.6,1.1-2.4
				c-0.1-0.5-0.6-0.6-1.1-0.5c0.1,0,0.2,0,0.2,0s-0.3,0-0.7,0c-0.2,0-0.5,0.1-0.8,0.2c-0.3,0.1-0.6,0.2-1,0.4
				c-0.3,0.1-0.7,0.3-1.1,0.5c-0.4,0.2-0.8,0.4-1.2,0.6c-0.2,0.1-0.4,0.2-0.7,0.3c-0.2,0.1-0.4,0.2-0.7,0.3
				c-0.4,0.2-0.9,0.4-1.3,0.7c-0.4,0.2-0.9,0.5-1.3,0.8c-0.4,0.3-0.8,0.5-1.2,0.8c-0.4,0.3-0.7,0.6-1,0.9c-0.3,0.3-0.6,0.6-0.9,0.9
				c-0.2,0.3-0.5,0.5-0.6,0.8c-0.2,0.2-0.3,0.5-0.4,0.7c-0.1,0.2-0.2,0.4-0.2,0.5c-0.1,0.1-0.1,0.2-0.1,0.2s0-0.1,0-0.2
				c0-0.1,0-0.3,0.1-0.5c0.1-0.2,0.1-0.5,0.3-0.8c0.1-0.3,0.3-0.6,0.5-0.9c0.1-0.2,0.2-0.3,0.4-0.5c0.1-0.2,0.3-0.3,0.4-0.5
				c0.3-0.3,0.6-0.7,1-1c0.4-0.3,0.8-0.6,1.2-0.9c0.4-0.3,0.9-0.6,1.3-0.8c0.5-0.2,0.9-0.5,1.4-0.7c0.2-0.1,0.5-0.2,0.7-0.3
				c0.2-0.1,0.5-0.2,0.7-0.3c0.4-0.2,0.9-0.3,1.3-0.5c0.3-0.1,0.6-0.2,0.9-0.3c0.3-0.4,0.6-0.9,0.8-1.4c1.1-2.3,1-4.1,0.8-6.6
				c-0.1-1.9-1.2-4.5-0.4-6.3c-1.2,0.3-2.4,0.5-3.6,0.3c1.3-0.8,3-1.5,3.8-2.8c-5.9-1.4-8.9-7.7-13.2-11.2c-2.1-1.7-4.9-2.4-7.6-2.1
				c-0.1,0.1-0.2,0.1-0.3,0.2c-0.2,0.1-0.5,0.3-0.7,0.4l-0.4,0.1c-0.1,0-0.3,0.1-0.4,0.1c-0.3,0.1-0.5,0.2-0.8,0.2l-0.8,0.2
				c-0.3,0-0.5,0.1-0.8,0.1c-0.1,0-0.3,0-0.4,0l-0.4,0c-0.1,0-0.3,0-0.4,0l-0.1,0l-0.1,0.5c-0.1,0.3-0.2,0.5-0.3,0.8
				c-0.2,0.5-0.5,1-0.8,1.4c-0.2,0.2-0.4,0.4-0.5,0.6c-0.2,0.2-0.4,0.4-0.6,0.5c-0.4,0.3-0.8,0.6-1.2,0.9c-0.9,0.6-1.7,1.1-2.5,1.6
				c-0.2,0.1-0.4,0.3-0.6,0.4c-0.2,0.1-0.4,0.3-0.6,0.4c-0.2,0.2-0.4,0.3-0.5,0.5c-0.2,0.2-0.3,0.3-0.5,0.5
				c-0.1,0.2-0.3,0.4-0.4,0.6l-0.3,0.6l-0.3,0.7c-0.1,0.2-0.1,0.4-0.2,0.7c-0.1,0.4-0.1,0.9,0,1.4c0.1,0.5,0.2,0.9,0.3,1.4
				c0.1,0.5,0.3,0.9,0.5,1.4c0.2,0.5,0.3,1,0.4,1.4c0.1,0.5,0.3,1,0.3,1.5c0,0.2,0.1,0.5,0.1,0.8c0,0.3,0,0.5-0.1,0.7
				c0.1-0.2,0-0.5,0-0.7c0-0.2-0.1-0.5-0.2-0.7c-0.1-0.5-0.3-0.9-0.5-1.4l-0.6-1.4c-0.2-0.5-0.4-0.9-0.6-1.4c-0.2-0.5-0.3-1-0.4-1.5
				c-0.1-0.5-0.1-1.1,0-1.6c0.1-0.3,0.1-0.6,0.2-0.8l0.2-0.7c0.1-0.3,0.3-0.5,0.4-0.7c0.1-0.2,0.3-0.4,0.5-0.7
				c0.2-0.2,0.4-0.4,0.5-0.6c0.2-0.2,0.4-0.4,0.6-0.5c0.2-0.2,0.4-0.3,0.6-0.5c0.2-0.2,0.4-0.3,0.6-0.4c0.8-0.6,1.7-1.1,2.6-1.6
				c0.2-0.1,0.4-0.3,0.6-0.4c0.2-0.1,0.4-0.3,0.6-0.4c0.2-0.1,0.4-0.3,0.6-0.5c0.2-0.2,0.4-0.3,0.5-0.5c0.1-0.2,0.3-0.3,0.4-0.5
				l0.2-0.3l0.1-0.1l0.1-0.2c0.1-0.2,0.2-0.4,0.3-0.6l0.2-0.7l0.1-0.3l0.3,0l0.4,0c0.1,0,0.3,0,0.4,0l0.4,0c0.1,0,0.3,0,0.4,0
				c0.3,0,0.5,0,0.8-0.1l0.8-0.1c0.3,0,0.5-0.1,0.8-0.1c0.1,0,0.3-0.1,0.4-0.1c0,0-0.1-0.7-0.3-1c-0.9-1.1-1.5-2.7-2.8-3.8
				c-4.6-3.7-11.2,3.1-12.9,7.3c-0.4-0.9-1.3-1.5-1.9-2.3c-0.2,0.1-0.4,0.3-0.7,0.5c-0.3,0.2-0.7,0.5-1.2,0.8
				c-0.4,0.3-0.9,0.7-1.4,1.1c-0.5,0.4-1.1,0.9-1.6,1.4c-0.6,0.5-1.2,1.1-1.8,1.6c-0.6,0.6-1.2,1.1-1.6,1.8
				c-0.4,0.7-0.6,1.5-0.7,2.3l0,0.7c0,0.2,0,0.4-0.1,0.7l0,0.4l-0.1,0.4c0,0.1-0.1,0.2-0.1,0.4l-0.1,0.3c-0.2,0.4-0.4,0.8-0.6,1.2
				c-0.2,0.4-0.3,0.8-0.4,1.1c0,0.4-0.1,0.8-0.1,1.2c0,0.4,0,0.8,0,1.1c0,0.4,0,0.7,0.1,1.1c0.1,0.4,0.1,0.7,0.1,1
				c0.1,0.3,0.1,0.6,0.2,0.9c0.1,0.3,0.2,0.6,0.2,0.8c0,0.1,0.1,0.3,0.1,0.4c0,0.1,0.1,0.2,0.1,0.3c0.1,0.2,0.2,0.4,0.2,0.6
				c0.2,0.4,0.3,0.6,0.4,0.8c0.1,0.2,0.1,0.3,0.1,0.3s-0.1-0.1-0.2-0.3c-0.1-0.2-0.3-0.4-0.5-0.8c-0.1-0.2-0.2-0.4-0.3-0.6
				c-0.1-0.1-0.1-0.2-0.2-0.3c-0.1-0.1-0.1-0.2-0.2-0.4c-0.1-0.3-0.2-0.5-0.3-0.8c-0.1-0.3-0.2-0.6-0.3-0.9c-0.1-0.3-0.2-0.7-0.2-1
				c-0.1-0.4-0.1-0.8-0.2-1.1c-0.1-0.4,0-0.8,0-1.2c0-0.4,0.1-0.8,0.1-1.2c0.1-0.5,0.2-0.9,0.4-1.4c0.2-0.4,0.4-0.8,0.5-1.2l0.1-0.3
				c0-0.1,0-0.2,0.1-0.3l0.1-0.3l0-0.3c0-0.2,0-0.4,0-0.6l0-0.7c0.1-1,0.3-1.9,0.9-2.8c0.5-0.8,1.2-1.4,1.9-2
				c0.7-0.5,1.3-1.1,1.9-1.5c0.6-0.5,1.2-0.9,1.8-1.3l0.4-0.3c-1-2.5-5-2.5-7.2-1.9c-1.6,0.4-2.6,1.1-3.8,2.1
				c-0.9,0.6-2.3,1.9-3.6,1.8c0,0.1,0.1,0.2,0.1,0.3c0.1,0,0.2,0.1,0.3,0.2c0.3,0.3,0.7,0.8,1,1.5c0.1,0.3,0.3,0.7,0.4,1.1
				c0.1,0.4,0.2,0.8,0.2,1.4c0,0.4,0,0.9,0,1.4c0,0.5,0,0.9-0.1,1.4l0,0.7l0,0.3l0,0.4c0,0.5,0.1,0.9,0.2,1.3
				c0.1,0.4,0.2,0.8,0.3,1.2c0,0.2,0.1,0.4,0.2,0.6c0.1,0.2,0.1,0.4,0.2,0.5c0.1,0.2,0.1,0.3,0.2,0.5c0.1,0.2,0.1,0.3,0.2,0.4
				c0.1,0.2,0.2,0.5,0.4,0.6c0.2,0.3,0.4,0.5,0.4,0.5s-0.2-0.1-0.5-0.4c-0.2-0.1-0.3-0.3-0.5-0.6c-0.2-0.2-0.4-0.5-0.6-0.8
				c-0.2-0.3-0.4-0.7-0.5-1.1c-0.1-0.2-0.2-0.4-0.2-0.6c-0.1-0.2-0.1-0.4-0.2-0.7c-0.1-0.5-0.2-0.9-0.3-1.4l0-0.4c0-0.1,0-0.3,0-0.4
				c0-0.3,0-0.5,0-0.8c0-0.5,0.1-1,0.1-1.4c0-0.5,0.1-0.9,0.1-1.4c0-0.3,0-0.7-0.1-1c-0.4-0.3-0.8-0.5-1.2-0.7
				c-2.3-0.8-6.6-1.1-6.8,2.2c-0.1,2.5,0.3,4.8,0.1,7.4c-0.2,2.5-0.5,5-0.6,7.6c-0.1,1.8,0.2,3.5,0.6,5.2c0.2,0.3,0.4,0.8,0.6,1.3
				c0.1,0.3,0.3,0.6,0.4,0.9c0.1,0.3,0.4,0.6,0.5,0.9c0.2,0.3,0.5,0.6,0.7,1c0.1,0.1,0.2,0.3,0.4,0.4c0.1,0.2,0.2,0.3,0.4,0.4
				l0.4,0.4c0.1,0.1,0.3,0.2,0.5,0.4c0.3,0.2,0.6,0.5,1,0.7c0.3,0.2,0.6,0.4,0.9,0.5c0.3,0.2,0.6,0.3,0.9,0.5c0.6,0.3,1,0.6,1.3,0.8
				c0.3,0.2,0.5,0.4,0.5,0.4s-0.2-0.1-0.6-0.2c-0.2-0.1-0.4-0.1-0.6-0.2c-0.2-0.1-0.5-0.2-0.8-0.2c-0.3-0.1-0.6-0.2-1-0.3
				c-0.3-0.1-0.7-0.3-1.1-0.5c-0.4-0.2-0.7-0.4-1.1-0.7c-0.2-0.1-0.4-0.3-0.5-0.4l-0.5-0.5c-0.2-0.2-0.3-0.3-0.4-0.5
				c-0.1-0.2-0.3-0.4-0.4-0.5c-0.1-0.2-0.2-0.3-0.3-0.5c-0.1-0.2-0.2-0.3-0.3-0.5c-0.2-0.4-0.4-0.7-0.5-1.1c0-0.1,0-0.1-0.1-0.2
				c-2.5,1.6-7,9-2.7,10.3c1.7,0.6,3.5,0.6,5.1,1.4c0.3,0.2,0.7,0.4,1,0.5c0.2,0,0.3,0.1,0.5,0.2c0.3,0.1,0.6,0.2,0.9,0.2
				c0.3,0.1,0.7,0.1,1,0.2c0.3,0.1,0.7,0.2,1,0.2c0.3,0,0.7,0.1,1,0.2c0.3,0,0.7,0.1,1,0.2c0.3,0,0.6,0.1,1,0.1
				c0.3,0,0.6,0.1,0.9,0.1c1.1,0.1,1.8,0.3,1.8,0.3s-0.7,0.1-1.8,0.2c-0.3,0-0.6,0-0.9,0c-0.3,0-0.6,0-1,0c-0.7,0-1.4-0.1-2.2-0.2
				c-0.4,0-0.7-0.2-1.1-0.2c-0.3-0.1-0.7-0.2-1-0.3c-0.4-0.1-0.7-0.3-1-0.4c-0.3-0.1-0.5-0.3-0.8-0.4c0,0,0,0-0.1,0
				c-3.7,1.6-5.8,6.9-6,10.4c1.8-1.9,4.4-2.7,7.1-2.8c2.5-0.1,5.6-1.2,7.5-3c-0.6,1.6-1.3,2.8-1.3,4.5c0.5-0.8,2.6-3.3,4.1-3.7
				c-1.3,4.4-2.6,8.9-4.1,13.3c-0.1,0-0.2,0-0.2,0c-0.7-0.2-1.4-0.4-2.2-0.5c0.6,1.2,1.2,2.4,1.4,3.7c-1.5,4.4-3,8.8-4.6,13.1
				c-2.2,5.9-4.7,11.8-8.6,16.8c-0.8,1.1-1.8,2.1-2.7,3c-0.4-1-1.1-2-1.5-2.7c0,1.1-0.6,2.3-1,3.3c-0.4,0.9-1.2,1.8-1.2,2.8
				c0.1,0,0.1-0.1,0.2-0.2l0.1,0c-0.3,0.3-0.6,0.5-0.9,0.8c-2.7,2.3-6,5-8.7,7.2L319.2,585.5z M375.6,525.2
				c-0.1-0.1-0.2-0.3-0.3-0.5c-0.1-0.2-0.3-0.4-0.4-0.7c-0.1-0.3-0.3-0.5-0.6-0.8c-0.2-0.3-0.5-0.6-0.7-0.8
				c-0.3-0.3-0.6-0.6-0.9-0.9c-0.4-0.3-0.7-0.6-1.1-0.8c-0.8-0.6-1.7-1-2.8-1.5c-1-0.5-2.1-0.8-3.3-1.2c-0.6-0.2-1.2-0.3-1.8-0.4
				c-0.3-0.1-0.6-0.1-0.9-0.2c-0.2,0-0.3-0.1-0.5-0.1l-0.5-0.1c-1.4-0.4-2.7-1.2-3.7-2.3c-1-1.1-1.7-2.3-2.3-3.5
				c-0.3-0.6-0.6-1.2-0.8-1.8c-0.1-0.3-0.2-0.6-0.4-0.9l-0.2-0.4l-0.2-0.4c-0.5-1.1-1.1-2-1.8-2.8c-0.7-0.8-1.6-1.4-2.4-2
				c-0.8-0.5-1.6-0.9-2.4-1.2c-0.7-0.3-1.4-0.5-2-0.6c-0.6-0.1-1-0.2-1.3-0.2c-0.3,0-0.5-0.1-0.5-0.1s0.2,0,0.5,0c0.3,0,0.8,0,1.4,0
				c0.6,0,1.3,0.1,2.1,0.3c0.4,0.1,0.8,0.2,1.3,0.4c0.4,0.2,0.9,0.3,1.4,0.6c0.9,0.5,1.9,1.1,2.8,1.9c0.9,0.8,1.7,1.9,2.3,3.1
				l0.2,0.5l0.2,0.4c0.1,0.3,0.3,0.6,0.4,0.9c0.3,0.6,0.5,1.2,0.8,1.7c0.6,1.1,1.3,2.2,2.1,3.1c0.4,0.4,0.9,0.8,1.4,1.2
				c0.2,0.2,0.5,0.3,0.8,0.4c0.1,0.1,0.3,0.1,0.4,0.2c0.1,0.1,0.3,0.1,0.4,0.1l0.4,0.1c0.1,0,0.3,0.1,0.5,0.1c0.3,0.1,0.6,0.1,1,0.2
				c0.7,0.2,1.3,0.3,1.9,0.5c1.2,0.4,2.4,0.9,3.4,1.5c1.1,0.6,2,1.2,2.8,1.9c0.4,0.3,0.8,0.7,1.1,1c0.3,0.4,0.6,0.7,0.9,1
				c0.2,0.3,0.5,0.7,0.6,1c0.2,0.3,0.3,0.6,0.4,0.9c0.1,0.3,0.2,0.5,0.3,0.7C375.6,524.9,375.7,525.1,375.6,525.2
				c0.2,0.3,0.2,0.4,0.2,0.4S375.8,525.5,375.6,525.2z M394.1,515c-0.4,0.2-0.9,0.5-1.6,0.8c-0.7,0.2-1.7,0.5-2.8,0.6
				c-0.5,0.1-1.1,0.1-1.7,0.1c-0.6,0-1.3-0.1-1.9-0.2c-1.3-0.2-2.8-0.6-4.2-1.3c-1.4-0.7-2.8-1.6-4.1-2.8c-1.2-1.2-2.3-2.5-3.5-3.4
				c-0.2-0.1-0.3-0.2-0.5-0.3l-0.2-0.1l-0.2-0.1c-0.2-0.1-0.3-0.2-0.5-0.2l-0.6-0.2c-0.8-0.2-1.6-0.4-2.5-0.6
				c-0.9-0.2-1.7-0.4-2.6-0.7c-0.4-0.1-0.9-0.3-1.3-0.5c-0.2-0.1-0.4-0.2-0.6-0.3l-0.3-0.1l-0.1,0l-0.1,0l0,0l0,0l-0.1-0.1
				c-1.6-0.9-2.9-2.3-3.8-3.7c-1-1.5-1.5-3.1-1.7-4.7c-0.1-0.8-0.2-1.5-0.2-2.3c0-0.7,0-1.4,0.1-2.1c0.1-1.3,0.3-2.5,0.6-3.6
				c0.2-1.1,0.5-1.9,0.8-2.7c0.2-0.7,0.5-1.3,0.6-1.7c0.2-0.4,0.2-0.6,0.2-0.6s0,0.2-0.1,0.6c-0.1,0.4-0.2,1-0.4,1.7
				c-0.3,1.5-0.7,3.7-0.7,6.2c0,1.3,0.1,2.7,0.4,4.1c0.3,1.4,0.9,2.8,1.7,4.1c0.9,1.3,2.1,2.3,3.5,3.2l0.1,0.1l0,0l0,0l0.1,0
				l0.3,0.1c0.2,0.1,0.4,0.2,0.6,0.3c0.4,0.1,0.7,0.3,1.1,0.4c0.8,0.2,1.6,0.4,2.5,0.6c0.9,0.2,1.7,0.4,2.6,0.6l0.6,0.2
				c0.2,0.1,0.5,0.2,0.7,0.3l0.3,0.2l0.3,0.2c0.2,0.1,0.4,0.2,0.6,0.4c0.8,0.6,1.4,1.2,2,1.9c0.3,0.3,0.6,0.6,0.8,1l0.2,0.2l0.1,0.1
				l0.1,0.1l0.4,0.5c0.1,0.1,0.2,0.1,0.2,0.2c1-0.1,2-0.2,2.9-0.6c1-0.4,1.9-0.9,2.6-1.6c0.2-0.2,0.4-0.4,0.5-0.5l0.3-0.3l0.1-0.1
				l0.1-0.2l0.5-0.6l0.4-0.6c0.5-0.9,1-1.8,1.3-2.8c0.3-1,0.4-2,0.4-3c0-1-0.2-2-0.4-3c-0.3-1-0.6-1.9-1.1-2.8l-0.1-0.2l0,0l0,0l0,0
				l-0.1-0.1l-0.2-0.3l-0.2-0.3l-0.2-0.3c-0.3-0.4-0.6-0.8-0.9-1.1c-0.7-0.7-1.5-1.4-2.3-2c-0.8-0.6-1.7-1.1-2.7-1.5
				c-0.9-0.4-1.9-0.7-2.9-0.9c-0.5-0.1-1-0.2-1.5-0.2l-0.4,0l-0.4,0l-0.4,0l-0.1,0h0l0,0l-0.2,0c-0.8,0.1-1.6,0.6-2,1.4
				c-0.4,0.7-0.5,1.7-0.3,2.5l0.1,0.3l0,0.1l0,0l0,0l0.1,0.2c0.1,0.1,0.1,0.2,0.2,0.2c0.1,0.1,0.1,0.2,0.2,0.3
				c0.3,0.3,0.7,0.6,1.2,0.9c0,0,0.1,0,0.1,0.1l0,0c0-0.1,0-0.3,0.1-0.4c0-0.1,0.1-0.3,0.1-0.4c0.1-0.3,0.3-0.5,0.5-0.7
				c0.1-0.1,0.2-0.2,0.3-0.3c0.1-0.1,0.2-0.2,0.4-0.3c0.3-0.1,0.5-0.3,0.8-0.3c0.3-0.1,0.6-0.1,0.9-0.1c0.3,0,0.6,0,0.9,0.1
				c0.3,0.1,0.6,0.1,0.8,0.2c0.3,0.1,0.5,0.2,0.8,0.4c0.5,0.3,0.9,0.7,1.3,1.1c0.2,0.2,0.3,0.5,0.5,0.7c0.1,0.3,0.2,0.5,0.3,0.8
				c0,0.1,0.1,0.3,0.1,0.4c0,0.1,0,0.3,0,0.4c0,0.1,0,0.3,0,0.4c0,0.1,0,0.3-0.1,0.4c0,0.1-0.1,0.3-0.1,0.4
				c-0.1,0.1-0.1,0.2-0.2,0.4c-0.1,0.2-0.3,0.4-0.5,0.6c0-0.3,0.1-0.5,0.1-0.7c0-0.2,0-0.5,0-0.7c0-0.2-0.1-0.4-0.1-0.6
				c0-0.1-0.1-0.2-0.1-0.3c0-0.1-0.1-0.2-0.1-0.3c-0.1-0.2-0.2-0.3-0.3-0.5c-0.1-0.2-0.3-0.3-0.4-0.4c-0.1-0.1-0.3-0.3-0.5-0.4
				c-0.2-0.1-0.3-0.2-0.5-0.3c-0.2-0.1-0.4-0.2-0.5-0.3c-0.2-0.1-0.4-0.2-0.6-0.2c-0.2-0.1-0.4-0.1-0.6-0.1c-0.2,0-0.4,0-0.6,0
				c-0.1,0-0.2,0-0.3,0l-0.3,0c-0.2,0-0.4,0.1-0.5,0.2c-0.2,0.1-0.4,0.2-0.5,0.3c-0.1,0.1-0.2,0.2-0.4,0.4c0,0.1,0,0.1-0.1,0.2
				c0,0,0,0,0,0.1c0.7,0.5,1.5,0.9,2.3,1.3l0,0l0,0c0.6,0.4,1.2,0.8,1.7,1.2l1.8,1.1l1.9,1l2,0.8l0.3,0l-0.3,0h0l0,0
				c-0.7-0.2-1.4-0.4-2.1-0.6c-0.7-0.3-1.3-0.5-2-0.8l-1.9-0.9c-0.6-0.3-1.3-0.7-1.9-1.1l0,0c-0.9-0.5-1.9-0.9-2.9-1.5
				c-0.5-0.3-1-0.6-1.4-1c-0.1-0.1-0.2-0.2-0.3-0.3c-0.1-0.1-0.2-0.3-0.3-0.4l-0.1-0.2l0,0l0,0c0,0,0,0,0,0c0,0.3-0.1,0.6-0.1,0.9
				c-0.1,0.8-0.1,1.6-0.2,2.4c-0.1,0.8-0.1,1.5-0.2,2.2c-0.1,0.6-0.2,1.2-0.3,1.5c-0.1,0.4-0.2,0.6-0.2,0.6s-0.1-0.2-0.2-0.6
				c-0.1-0.4-0.2-0.9-0.4-1.5c-0.1-0.6-0.2-1.4-0.3-2.2c0-0.4-0.1-0.8-0.1-1.2c0-0.4,0-0.9,0-1.3c0-0.4,0.1-0.9,0.2-1.3
				c0.1-0.4,0.2-0.9,0.3-1.3c0.1-0.4,0.3-0.8,0.5-1.1c0.2-0.3,0.3-0.6,0.5-0.9c0.1-0.2,0.1-0.3,0.2-0.5c0.6-1.1,1.7-2,3.1-2.2l0.2,0
				l0,0l0,0l0.1,0l0,0l0.1,0l0.4,0l0.4,0l0.4,0c0.6,0,1.1,0.1,1.7,0.2c1.1,0.2,2.2,0.5,3.2,1c1,0.4,2,1,3,1.6
				c0.9,0.7,1.8,1.4,2.6,2.2c0.4,0.4,0.7,0.9,1.1,1.4l0.3,0.4l0.2,0.3l0.2,0.4l0,0.1l0,0.1l0,0l0.1,0.2c0.5,1,0.9,2.1,1.1,3.2
				c0.3,1.1,0.4,2.2,0.4,3.4c0,1.1-0.2,2.3-0.6,3.3c-0.4,1.1-0.9,2.1-1.6,3l-0.5,0.7l-0.5,0.6l-0.1,0.1c-0.1,0.1-0.1,0.1-0.2,0.2
				l-0.3,0.3c-0.2,0.2-0.4,0.4-0.6,0.5c-0.9,0.7-1.9,1.2-3,1.4c-1,0.2-2,0.3-3,0.2c1,1,2.2,1.8,3.3,2.5c1.3,0.7,2.6,1.2,3.8,1.5
				c1.2,0.3,2.4,0.5,3.4,0.4c1,0,1.9-0.1,2.7-0.3C393.1,515.2,393.7,515.1,394.1,515c0.3-0.2,0.5-0.3,0.5-0.3S394.5,514.8,394.1,515
				z"/>
		</g>
	</g>
	
		<image style="display:inline;overflow:visible;" width="562" height="577" xlink:href="../../Desktop/Screenshot 2023-12-08 at 6.02.33 pm.png"  transform="matrix(1 0 0 1 -894.3284 -248.0435)">
	</image>
	<path class="st3" d="M-637,402.3c0,0,27.9,21.1,38,45.3c7.7,18.5,4.2,30.5,13.5,35.4c0,0,15,0.1,22,8.4c0,0-3.1,2.7-5.4,3.3
		c-2.3,0.6-12,0.4-19.4,11.1c-2.7,3.8-4.5,5.1-7.3,5.1c0,0-1.6-12.2,1.6-17.4c3.2-5.2,3.8-8.2,0.9-14.3c-3.9-8.3-7.2-29.9-12-37.8
		c-4.8-8-20.1-29.7-36.5-38.2L-637,402.3z"/>
	<path class="st1" d="M-605.3,439.2c-0.2,0.1-0.3,0.5-0.6,1c-1.1,2.1-1.6,4.6-2,6.9c-0.4,2.6-0.5,5.2-0.7,7.9
		c-0.4,3.9-0.6,8.2-1.8,11.9c-1.2,3.7-2.9,6.8-5.1,10c-0.6,0.9-2.1,2.5-3,3.1c-0.7,0.5-1.8,1.4-3.8,1.9c0,0,1.5-2.3,2.8-4.3
		c0.3-0.5,0.7-1,0.9-1.6c1.7-3.4,1.9-7.2,2.2-11c0.2-2.7,0.3-5.5,0.6-8.2c0.3-3.1,0.8-6.1,1.5-9.1c0.7-3.3,2.7-6.3,4.5-9.2
		c0.9-1.4,1.6-2.4,2.8-3.5L-605.3,439.2z"/>
</g>
<g id="Layer_2">
	<g>
		<path d="M41.8,130.5v-2.7l1-0.1c2.5-0.4,4.6-0.9,6.2-1.5c1.6-0.6,3-1.7,4.2-3.2c1.2-1.5,2.3-3.5,3.4-6.1l26.1-63.4h3.7l25.5,63.4
			c1.4,3.5,3,6.1,4.6,7.8c1.7,1.7,3.9,2.6,6.8,2.9l2.2,0.2v2.7l-13.4-0.3l-17.3,0.3v-2.7l2.2-0.2c2.5-0.3,4.3-0.8,5.4-1.6
			c1.1-0.8,1.6-1.9,1.6-3.3c0-1.4-0.5-3.4-1.5-5.8l-5.6-14H66.4l-5.8,14c-0.5,1.3-0.9,2.5-1.3,3.5c-0.4,1-0.5,2-0.5,2.8
			c0,1.4,0.6,2.4,1.8,3.1c1.2,0.7,3.2,1.2,5.9,1.4l2.2,0.2v2.7l-13.7-0.3L41.8,130.5z M67.8,99.3h27.8L82,65L67.8,99.3z"/>
	</g>
	<g>
		<path d="M91.4,211.5c-6.3-8.4-16.2-17.3-22.1-21.4c-3-2.1-6-3.9-8.4-5.3c-5.5-1.9-13.3-3.6-22.6-2.9c-0.2-0.2-0.5-0.4-0.9-0.4
			c-0.7,0-1.3,0.5-1.3,1.2c0,0.7,0.5,1.3,1.2,1.3c0.5,0,0.9-0.3,1.1-0.7c2.6-0.3,9.4-0.6,18.5,1.8c-5.5-1.2-12.5-1.8-20.3-0.6
			c-0.2-0.2-0.6-0.4-0.9-0.3c-0.7,0-1.2,0.6-1.2,1.3c0,0.7,0.6,1.2,1.3,1.2c0.5,0,0.9-0.3,1.1-0.8c1.8-0.4,5.8-0.9,11.3-0.6
			c-2.1,0.1-4.3,0.3-6.7,0.6c-0.2-0.2-0.6-0.4-0.9-0.3c-0.7,0-1.2,0.6-1.2,1.3s0.6,1.2,1.3,1.2c0.5,0,0.9-0.3,1.1-0.8
			c2.4-0.5,8.6-1.3,17.3,0.2c-5.6-0.7-13-0.7-21.3,1.7c-0.3-0.2-0.6-0.3-0.9-0.2c-0.7,0.1-1.1,0.8-1,1.4c0.1,0.7,0.8,1.1,1.4,1
			c0.5-0.1,0.9-0.4,1-0.9c2.8-0.9,10.9-3,22.8-1.4c-5.8-0.3-13,0.1-20.9,2.7c-0.3-0.2-0.6-0.3-0.9-0.2c-0.7,0.1-1.1,0.8-1,1.5
			c0.1,0.7,0.8,1.1,1.5,1c0.5-0.1,0.9-0.5,1-0.9c0.4-0.2,1-0.4,1.6-0.6c-0.3,0.3-0.5,0.7-0.4,1.2c0.1,0.7,0.8,1.1,1.5,1
			c0.5-0.1,0.9-0.5,1-0.9c2.6-0.5,5.7-1.4,10.6-2c-4.3,0.8-9.1,2.2-14,4.6c-0.3-0.1-0.6-0.2-1-0.1c-0.7,0.2-1,0.9-0.8,1.6
			c0.2,0.7,0.9,1,1.6,0.8c0.5-0.2,0.8-0.6,0.8-1.1c2.7-1.4,10.6-5,23-5.4c-6.2,0.6-14.8,2.4-23.6,7.6c-0.3-0.1-0.6-0.1-1,0
			c-0.6,0.3-0.9,1-0.6,1.7c0.3,0.6,1,0.9,1.7,0.6c0.5-0.2,0.7-0.7,0.7-1.1c2.5-1.6,9.9-5.8,22-7.2c-5.3,1.2-11.6,3.4-17.9,7.4
			c-0.3-0.1-0.7-0.1-1,0.1c-0.6,0.3-0.9,1.1-0.6,1.7c0.3,0.6,1.1,0.9,1.7,0.6c0.5-0.2,0.7-0.7,0.7-1.2c1.9-1.3,6.5-4.2,13.9-6.3
			c-5.2,2-11.3,5.2-17.1,10.4c-0.3-0.1-0.7,0-0.9,0.2c-0.6,0.4-0.7,1.2-0.3,1.7c0.4,0.6,1.2,0.7,1.7,0.3c0.4-0.3,0.6-0.8,0.5-1.3
			c2.2-2.1,9-7.9,21.1-11.7c-4.3,1.9-9.2,4.5-14.3,7.9c-0.3-0.1-0.7,0-1,0.1c-0.6,0.4-0.8,1.1-0.4,1.7c0.4,0.6,1.1,0.8,1.7,0.4
			c0.4-0.3,0.7-0.7,0.6-1.2c1.9-1.1,4.1-2.6,7.4-4.4c-3.6,2.5-7.4,5.6-10.9,9.7c-0.3,0-0.7,0.1-0.9,0.3c-0.5,0.5-0.5,1.3-0.1,1.8
			c0.5,0.5,1.3,0.5,1.8,0.1c0.4-0.3,0.5-0.9,0.3-1.3c1.8-2.3,7.2-8.3,17.4-13.4c-5,3.4-11.3,8.8-16.3,16.7c-0.3,0-0.6,0.2-0.8,0.5
			c-0.4,0.5-0.3,1.3,0.2,1.8c0.5,0.4,1.3,0.3,1.8-0.2c0.3-0.4,0.4-0.9,0.1-1.3c1.5-2.7,6.5-10.2,17.3-17.2
			c-4.3,3.6-9.5,8.7-14.8,15.3c-0.3,0-0.6,0.2-0.9,0.4c-0.5,0.5-0.4,1.3,0.1,1.8c0.5,0.5,1.3,0.4,1.8-0.1c0.3-0.4,0.4-0.9,0.2-1.3
			c0.8-0.9,1.7-2,2.7-3.2c-0.1,0.4,0,0.9,0.4,1.2c0.5,0.5,1.3,0.4,1.8-0.1c0.2-0.3,0.4-0.6,0.3-0.9c2.1-1.7,3.9-3.6,5.5-5.4
			c-5.6,7.1-9.5,10.2-12.1,12.7c-0.4-0.2-1-0.1-1.3,0.3c-0.5,0.5-0.5,1.3,0,1.8c0.5,0.5,1.3,0.5,1.8,0c0.3-0.2,0.4-0.6,0.4-0.9
			c7.6-6.9,12.9-13.5,16.2-18.3c-7.7,12.4-12.9,16.7-16,20.1c-0.4-0.1-1,0-1.3,0.3c-0.5,0.5-0.5,1.3,0.1,1.8
			c0.5,0.5,1.3,0.5,1.8-0.1c0.2-0.3,0.4-0.6,0.3-0.9c2.3-2.3,4.4-4.6,6.3-6.7c-1.5,2.3-3.1,4.9-4.6,7.7c-0.3,0.1-0.6,0.3-0.8,0.6
			c-0.4,0.6-0.2,1.4,0.4,1.7c0.6,0.4,1.4,0.2,1.7-0.4c0.3-0.4,0.2-1,0-1.4c2.3-3.7,4.9-9.4,13.5-19.2c-1.8,3.7-3.7,6.6-5.2,8.6
			c-0.4-0.1-0.9,0.1-1.2,0.4c-0.3,0.4-0.3,0.9-0.2,1.3c-0.5,0.6-0.9,1-1.2,1.4c-0.5-0.1-1,0.1-1.2,0.5c-0.4,0.6-0.2,1.4,0.3,1.7
			c0.6,0.4,1.4,0.2,1.7-0.3c0.2-0.3,0.3-0.6,0.2-0.9c0.5-0.5,0.9-1.1,1.4-1.6c0.4,0,0.7-0.2,1-0.5c0.2-0.3,0.3-0.6,0.3-0.9
			c2.7-2.7,5-5.5,6.8-8.3c-5,9.1-10.5,13.9-12.7,15.6c-0.4-0.2-1,0-1.3,0.3c-0.5,0.5-0.5,1.3,0,1.8c0.5,0.5,1.3,0.5,1.8,0
			c0.2-0.3,0.4-0.6,0.3-0.9c6.1-5.1,10.2-10.8,12.9-15.8c-4,8.2-8.5,12.9-10.4,14.6c-0.5-0.1-1,0-1.3,0.4c-0.4,0.5-0.3,1.3,0.2,1.8
			s1.3,0.3,1.8-0.2c0.2-0.3,0.3-0.6,0.3-0.9c5.3-5.3,8.8-11,11.2-15.9c-5.2,12.4-12.2,18.8-14.7,20.8c-0.5-0.1-1,0-1.3,0.4
			c-0.5,0.5-0.4,1.3,0.1,1.8c0.5,0.5,1.3,0.4,1.8-0.1c0.2-0.3,0.3-0.6,0.3-0.9c7.4-6.5,11.8-13.9,14.2-19.5
			c-3.3,9.1-7.7,14.4-9.4,16.3c-0.5-0.1-0.9,0.1-1.2,0.5c-0.4,0.6-0.2,1.3,0.3,1.7c0.6,0.4,1.3,0.2,1.7-0.3c0.2-0.3,0.2-0.6,0.2-0.9
			c5.2-6.1,8.3-12.6,10.1-17.9c-3.5,11.8-8.9,18.5-11,20.7c-0.5-0.1-1,0.1-1.2,0.5c-0.4,0.6-0.2,1.4,0.3,1.7
			c0.6,0.4,1.4,0.2,1.7-0.3c0.2-0.3,0.3-0.6,0.2-0.9c6.8-8,10-16.4,11.6-22.4c-1.9,9.6-5.5,15.5-6.9,17.7c-0.5,0-0.9,0.3-1.1,0.7
			c-0.3,0.6,0,1.4,0.6,1.7c0.6,0.3,1.4,0,1.7-0.6c0.1-0.3,0.2-0.7,0-1c3.1-5.1,5.1-10.1,6.3-14.7c-2.1,10-5.9,16.2-7.4,18.4
			c-0.5,0-0.9,0.2-1.2,0.7c-0.3,0.6,0,1.4,0.6,1.7c0.6,0.3,1.4,0,1.7-0.6c0.2-0.3,0.2-0.7,0.1-1c4-6.2,6.2-12.4,7.4-17.7
			c-2.2,11.7-6.7,18.8-8.4,21.1c-0.5,0-0.9,0.2-1.2,0.7c-0.3,0.6-0.1,1.4,0.5,1.7c0.6,0.3,1.4,0.1,1.7-0.5c0.2-0.3,0.2-0.7,0.1-1
			c5.5-8.2,7.8-16.4,8.8-22.5c-1,11.7-4.8,19.1-6.3,21.6c-0.5,0-0.9,0.3-1.1,0.8c-0.3,0.6,0.1,1.4,0.7,1.6s1.4-0.1,1.6-0.7
			c0.1-0.3,0.1-0.7,0-1c0.6-1.2,1.2-2.3,1.7-3.5c0,0.5,0.4,1,1,1.1c0.7,0.2,1.3-0.3,1.5-0.9c0.1-0.3,0-0.7-0.2-1
			c1.9-5.3,2.8-10.5,3.1-15c-0.1,9.9-2.4,16.4-3.4,18.9c-0.5,0.1-0.9,0.4-1,0.9c-0.2,0.7,0.2,1.4,0.9,1.5c0.7,0.2,1.4-0.2,1.5-0.9
			c0.1-0.3,0-0.7-0.1-1c1.8-4.7,2.7-9.3,3.2-13.5c-0.3,8.7-2.3,14.5-3.2,16.8c-0.5,0.1-0.9,0.4-1,0.9c-0.2,0.7,0.3,1.4,0.9,1.5
			c0.7,0.2,1.4-0.3,1.5-0.9c0.1-0.3,0-0.7-0.2-1c2.7-7.3,3.4-14.1,3.3-19.5c1.4,10.5-0.3,17.8-1,20.5c-0.5,0.1-0.8,0.5-0.9,1
			c-0.1,0.7,0.4,1.3,1.1,1.4c0.7,0.1,1.3-0.4,1.4-1.1c0-0.3-0.1-0.7-0.3-0.9c2.6-10.6,1.6-20,0.2-26.1c3.2,12,2.2,20.9,1.7,23.9
			c-0.4,0.2-0.7,0.6-0.7,1.1c0,0.7,0.5,1.3,1.2,1.3c0.7,0,1.3-0.5,1.3-1.2c0-0.3-0.1-0.7-0.3-0.9C95.9,226.6,93.5,216.9,91.4,211.5z
			 M44,192.5c-0.2-0.1-0.3-0.2-0.5-0.2c2.5-0.7,6.1-1.5,10.8-1.7C51,191,47.6,191.6,44,192.5z M60.7,209.6c-0.3-0.1-0.6-0.1-0.9,0.1
			c2.2-2.6,5.2-5.9,10-10C65.9,205.1,62.3,208.3,60.7,209.6z M83.5,230.1c-0.2,0-0.4,0.1-0.5,0.3c1.2-2.8,2.1-5.5,2.7-8.1
			C85,226.1,84.1,228.8,83.5,230.1z"/>
		<path d="M78,168.2c1.9,0,5.3,0.5,10-2.8c0,0-2.3-7.3-6.5-9.7c0,0-3.8,1.6-5.9,8C74.4,167.5,75.5,168.2,78,168.2z"/>
		<path d="M204.4,54.9c0.6,0.7,1.3,1.4,2.1,1.9c1.5,0.9,3.2,1.2,4.9,1.4c0.9,0.1,1.7,0.2,2.6,0.4c0.8,0.2,2.2,0.3,3,0.5
			c3.2,0.7,5.3,3,7.8,5.4c0.1,0.1,0-1.3,0-1.6c-0.3-2.1-0.5-3.9-1.6-5.7c-0.6-0.8-1.3-1.6-2.1-2.1c-0.9-0.5-1.8-0.8-2.8-0.8
			c-1,0-2,0.2-3,0.2c-1.1,0-2-0.5-2.9-1.1c-0.9-0.6-1.7-1.3-2.6-1.9c-0.8-0.5-1.7-0.9-2.7-1c-1.8-0.1-3.6,0.6-4.7,1.9
			c-0.1,0.1,0,0.1,0,0.2C203.2,53.5,203.8,54.2,204.4,54.9z"/>
		<path d="M201.8,78.6c0.3,0.9,0.5,1.8,0.9,3.2c0.5-0.6,1.1-1.1,1-1.4c-0.3-0.8-0.9-1.7-1.3-2.2C201.9,77.7,201.6,77.6,201.8,78.6z"
			/>
		<path d="M196.9,78.6c0.4,3.3,1.7,6.3,3.8,9.2c0,0,0.2,0.3,0.3,0.4c0-0.4,0.1-0.8,0.1-1.2c0.2-0.7,0.3-1.5,0.4-2.2
			c0.3-1.8,0.3-3.6-0.2-5.3c-0.4-1.3-1.5-2.1-1.6-3.8c0-0.6,0.1-1.2,0.1-1.8C197.9,74.7,196.7,76.7,196.9,78.6z"/>
		<path d="M210.6,80c0-0.6-0.2-1.2-0.4-1.8c-0.2-0.6-0.6-1.2-1-1.7c-0.2-0.3-0.5-0.5-0.8-0.7c-0.3-0.2-0.7-0.4-1-0.6
			c-0.3-0.2-0.6-0.4-0.8-0.7c-0.2-0.3-0.4-0.6-0.7-0.9c-0.4-0.6-0.9-1.1-1.6-1.3c-0.6-0.2-1.2-0.3-1.8,0c-0.6,0.2-1,0.7-1.1,1.3
			c-0.1,0.3-0.1,0.5-0.2,0.9c-0.1,0.4-0.1,0.9,0,1.5c2.1-0.8,3.9-0.5,5.4,1.2c1.5,1.6,2,3.3,1.4,5.5c-0.1,0.3,0.1,0.3,0.2,0.2
			c0.7-0.1,1.3-0.5,1.8-1C210.4,81.4,210.6,80.7,210.6,80z"/>
		<path d="M201.8,67c-1.9,2.4-4,2.9-6.9,2.9c-2,0-4.3,1.1-6,2.3c-3,2-5.3,4.8-5.7,8.7c-0.1,1.3,0.8,2.2,2.1,1.9
			c2.5-0.7,5.1-1.2,7.1-3.1c1.3-1.2,2.6-2.1,3.3-3.8c0.9-2.3,2.9-3.8,5.1-4.7c1.1-0.4,2.6-0.7,3.8-0.3c2.3,0.7,4.4,2.5,5.9,4.6
			c2.3,3.4,1.7,9.6-1.3,12.7c-1,1-1.8,2.2-2.7,3.3c-0.3,0.4,0.2,0.2,0.4,0.2c1.2-0.5,2.3-1.1,3.5-1.4c5-1.3,8.1-8.7,3.9-13.6
			c-0.6-0.7-1.3-1.5-2-2.1c-2.1-1.9-3.6-4.1-4.8-6.7C205.9,64.3,204.2,64,201.8,67z"/>
		<path d="M181.8,82.8c0.1-0.5,0-0.8-0.5-0.4c-1.4,1.2-2.8,2.3-4.1,3.7c-0.3,0.4,0,1.4,0.1,2.1c1,5.6,3.1,10.3,7.3,15.9
			c2.1,2.8,2.5,6.7,3.8,10c0.3,0.7,0.9,1.7,1.5,1.7c5.7,0.9,11.2,0.4,16.3-2.3c0.1,0,0.9-0.3,0.3-0.5c-1.2-0.5-2.3-1.2-3.6-1.5
			c-2.9-0.7-5-2.2-7-4.4c-1.9-2.1-4.2-4-6.6-5.5c-4.2-2.7-6.5-6.6-7.8-11.2c-0.3-1-0.2-2.1-0.1-3.1
			C181.5,85.7,181.7,84.3,181.8,82.8z"/>
		<path d="M184.6,63.6c-2.3,1.9-5.4,2.6-7.6,4.7c-2.3,2.1-3.7,5.2-3.8,8.3c-0.1,2.9,1,5.7,2.9,7.8c0.4,0.5,0.8,0,1.2-0.3
			c0.9-0.8,1.7-1.3,2.1-1.7c0.7-0.6,1.4-0.7,1.9-1.5c1-1.7,1.2-3.8,2.1-5.6c0.2-0.3,0.4-0.7,0.6-1c2-2.5,4.5-4.3,7.5-5.3
			c1.4-0.5,2.9-0.7,4.4-0.7c1.8,0.1,3.3-0.1,4.3-1.9c0.2-0.4,0.6-0.7,0.9-1c3.1-3.1,5.5-2.8,7.7,0.9c0.1,0.2,0.3,0.5,0.5,0.8
			c2-0.6,3.8-0.4,5.1,1.4c0.2,0.3,0.9,0.4,1.4,0.5c3.5,0.8,5.6,3.5,5.5,7.1c0,0.7,0,1.5,0.2,2.2c0.8,3.4-0.3,5.7-3.1,7.7
			c-1.2,0.9-1.8,2.4-2.9,3.9c5,0.5,9.3-3.5,9.2-7.8c0-1.8,0.5-3.6,0.6-5.5c0.1-2,0.3-4.2-0.3-6.1c-1.2-4.5-4.1-8-8.2-10.2
			c-1.4-0.8-3.2-0.9-4.8-1.1c-2.8-0.2-5.4-0.7-7.8-2.5c-1.6-1.2-3.5-1.5-5.5-0.3c-0.6,0.4-1.4,0.7-2.2,0.8c-0.6-0.3-1.1-0.7-1.6-0.9
			c-1.4-0.7-2.8-0.7-4.2,0C187.7,57.9,187,61.5,184.6,63.6z"/>
		<path d="M205.6,93.7c1.2,2,2.3,3.7,3.4,5.6c2.7-2.6,3.6-5.8,4.5-9.3C210.7,91.3,208.3,92.5,205.6,93.7z"/>
		<path d="M209.7,83.9c-1.7-0.3-3.4-0.5-5-0.8c-1.2-0.2-2-0.2-2,1.4c0,1.2-0.5,2.5-0.6,3.7c-0.1,0.7,0.2,1.5,0.3,2.5
			C206.3,89.2,209,87.4,209.7,83.9z"/>
		<path d="M207,82.1c0.7-2-0.1-3.2-1.2-4.4c-1.1-1.1-2.2-1.6-3.9-0.8c1.8,1,3.4,2,2.8,4.5C205.5,81.6,206.2,81.9,207,82.1z"/>
		<path d="M218.3,84.6c1.5-1.5,2.2-3,1.8-5c-0.2-1.4-0.4-2.7-0.5-4.1c-0.1-2.6-1.7-4.4-4.1-5.1c-1.1-0.3-2.1-1-3.1-1.5
			c-0.7-0.3-1.5-0.5-2.3-0.8c-1-0.2-0.6,0.3-0.4,0.7c0.9,1.1,1.7,2.4,2.8,3.4C217.8,77.5,217.8,77.5,218.3,84.6z"/>
		<path d="M228.5,108.3c-3.2,1.9-6.5,3.5-9.6,5.4c-3.1,2-6.3,2-9.6,0.7c-0.9-0.4-1.7-0.3-2.6,0.2c-3.7,2-7.9,2.6-12,3
			c-0.4,0-0.9,0.1-1.4,0.1c0.6,1.4,1,2.7,1.7,3.9c1.2,2.3,4.1,2.9,6,1.1c1.2-1.2,2.2-1.1,3.4,0c4.3,3.8,12.3,10.7,17.4,8.1
			c1.1-0.6,2.2-1.4,3.1-2.2c4.2-4.1,1.9-14.1,11.2-16.4c-1.5-1.4-2.8-2.6-4.1-3.8C230.9,107.6,229.8,107.6,228.5,108.3z"/>
		<path d="M195.2,79.3c-2.8,1.8-5.6,3.7-8.6,5.6c3.3,5.1,6.8,10.5,10.4,16c1.3,2,3.3,3.1,5.8,3.5c2.2,0.3,4.4,0.9,6.9,1.4
			c-0.4-1.3-0.7-2.4-1.1-3.3c-1.7-3.8-3.7-7.4-6.6-10.5c-3.3-3.5-5.7-7.4-6.5-12.2C195.4,79.6,195.2,79.4,195.2,79.3z"/>
		<path d="M238.4,97.7c-0.4-1.1-0.7-2.2-1.1-3.2c-0.4-1-1.8-3.1-1.9-3.3c0,0.1-0.2,0.5-0.2,0.5c-1.5,3.9-3.9,6.9-6.8,9.3
			c-2.9,2.4-9.9,6.4-10.1,6.6c-0.1,0.1-0.4,0.2-0.1,0.2c0.1,0,0.3,0.1,0.5,0.1c2,0.5,6.2,1,6.3,0.9c0.1,0,0.5-0.2,0.5-0.2
			c0.9-0.4,1.7-0.8,2.6-1.2c1.8-0.8,3.7-1.6,5.8-1.6c1.9,0,3.8,0.5,5.1,2c0.1,0.1,0.2,0,0.2-0.1c0.4-1.2,0.5-2.4,0.5-3.6
			C239.6,102,239,99.8,238.4,97.7z"/>
		<path d="M218.2,112c1.1-0.7,2.4-1.1,3.6-1.7c0.5-0.2,1-0.5,1.4-0.6c0.2-0.1,0.2-0.2,0.1-0.2c-2.5-0.2-5-0.4-7.4-0.8
			c-4.4-0.8-8.8-2-13.2-2.7c-4.3-0.7-6.8-3.6-9-6.8c-2.2-3.2-4.1-6.7-6.2-10c-1.2-1.9-2.6-3.6-3.9-5.4c-0.4-0.5-0.5-0.9-0.6,0.3
			c-0.6,6.7,1.8,11.9,7.4,15.7c2.9,2,5.7,4.1,7.9,6.9c1,1.2,2.7,1.9,4.1,2.7c1.7,0.9,3.7,1.4,5.3,2.4
			C211.3,113.8,214.7,114.3,218.2,112z"/>
		<path d="M227.1,77.2c-0.1,0.4-0.2,0.7-0.4,1.1c-0.4,1.1-0.4,2.5-0.3,3.8c0.2,3.1-0.8,5.5-3.6,6.9c-2.1,1-4.4,1.6-6.6,2.4
			c-0.5,0.2-1,0.5-1.2,0.9c-1.1,3.1-2.7,6-5.4,8.1c0.4,1,0.8,1.8,1,2.7c0.4,2.6,1.9,3.9,4.4,4.1c0.8,0,1.8,0.1,2.4-0.3
			c5.4-3.1,10.6-6.4,14.1-11.8c1.3-2,2-4.1,2.4-6.4c0.4-1,0.5-2,0.6-3c0-1.1-0.2-2.1-0.3-3.2c-0.1-0.5-0.1-1.1-0.1-1.6
			c0-0.6,0.2-1.1,0.3-1.6c0.3-1.1,0.8-2.1,1.2-3.1c0.5-1.8,0.3-3.7-0.3-5.4c-0.7-1.8-2-3.2-3.7-4.1c-1.7-0.9-3.7-1.2-5.6-0.7
			c-0.1,0-0.1,0.1-0.1,0.1c0.4,1.3,0.7,2.7,0.8,4.1C227.1,72.4,227.1,74.8,227.1,77.2z"/>
		<path d="M198.9,125.5c-1.6,0-2.8-0.3-3.8-1c-0.2-0.1-0.3-0.2-0.4-0.4c-0.8-0.7-1.3-1.7-1.7-3c-0.1-0.4-0.4-1-0.4-1.3
			c-0.5-1.9-1.5-2.7-3.8-2.4c0,0-2.9,2.3-0.4,7.4c2.5,5,6.6,4.5,7.3,9.2c0.8,4.8,0,6.8,0,6.8s4.7-1.6,6.6-6.7c1.9-5.1-1-8.9-1-8.9
			S199.2,125.5,198.9,125.5z"/>
		<path d="M171.4,78.6c0.5-0.1,0.8-0.5,0.6-1c-0.5-1.7-0.5-3.6-0.1-5.3c0.7-3.1,2.8-5.9,5.6-7.4c2.8-1.4,6.9-2.1,8.2-5.6
			c0.4-1.8,0.1-3.7-1-5.2c-1.1-1.5-3-2.3-4.8-2.1c-1.9,0.2-3.2,1.5-4,3.2c-0.8,1.7-1.3,3.6-2.8,4.8c-2.6,2-6,2.4-8.5,4.6
			c-2.5,2.2-3.4,6.1-2,9.2C164.1,77.2,167.8,79.2,171.4,78.6z"/>
		<path d="M184.7,107.6c-4-5.1-6.4-8.5-8.6-17.5c-0.1-1-0.4-2.4-0.8-3.4c-0.3-0.7-2-3.8-2.5-4.7c-0.8-1.4-0.3-2.2-3.6-1.9
			c-0.4,0.1-1,0.2-1.2,0.3c-1.1,0.5-2.2,1.3-3,2.2c-1.9,2.2-2.4,5.9-1.1,8.4c1.3,2.5,3.8,4.3,5,6.9c1.1,2.4,0.8,4.8,0,7.2
			c-0.4,0.9-0.8,1.9-1.2,2.8c-0.4,1.1-0.7,2.2-0.9,3.3c-0.2,1-0.6,2.1-0.5,3.2c0,1,1.2,1.5,2.1,1.8c1,0.4,2,0.4,3.1,0.4
			c0.9-0.1,1.9-0.2,2.7,0.2c0.3,0.1,0.9,0.3,1.2,0.5c0.9,0.4,2.1,0.5,3.1,0.6c-0.1,0.1-0.2,0.1-0.4,0.2c-1.9,1.3-4.4,1.9-6,3.5
			c-0.3,0.3-2.3,1.8-3.1,2.3c-3.1,2-6.1,3.9-9.2,5.9c-1.2,0.7-3,1.8-4.9,2.8c-0.3-0.2-0.6-0.5-0.7-1c-0.1-0.5,0.1-1.1,0.2-1.6
			c0.1-0.4,0.1-0.8,0.2-1.3c2.5-2.8,5.1-5.7,6.8-9c0.8-1.5,1.2-3.1,1.1-4.7c-0.2-2.1-1.1-5.5-1.8-7.2c-2.1-5-5-9.7-5.6-10.7
			c0-0.1-0.1-0.2-0.1-0.3c0,0,0-0.1-0.1-0.1c0,0,0,0,0,0c0,0,0,0,0,0c0,0-0.1,0-0.2,0.1c0,0-7.1,6.3-8.9,13.8
			c-2,8.3,6.6,14.4,7.4,17.3c0,0,0,0,0,0c0,0.7-0.1,1.3-0.2,2c-0.3,1.6-0.9,3.2-1.7,4.6c-2,1-3.4,1.8-3.4,1.8l0.5-3.8
			c0,0-2.6,6.5-5.2,8.9c-1,1-2.3,2.9-3.5,4.8V46.9c0-0.9-0.7-1.7-1.7-1.7c-0.9,0-1.7,0.7-1.7,1.7v84.7c-0.8,1.6-1.7,3.1-2.6,4.8
			c-6.1,4.4-15.5,7.2-21,8.7c-3.6,0.9-8.9,2.5-12.3,4c-4.2,1.9-6.2,3.6-8.9,3.6c-7.1-0.1-9.2,2.4-9.2,2.4c5,3.8,6.3,10,6.3,10
			c5.5-2.9,3.7-8,7-9.8c7.6-4.2,12.1-5.4,17.2-6.5c7.3-1.5,13.6-4.8,17.9-7.4c-4,5.9-8.9,11.7-14.9,15.9c-15.7,10.9-22.7,18-24.6,20
			c-0.3,0.4-0.7,0.5-1,0.5c-1.9,0-8.9,0.5-14.5,5.8c-3.8,3.7-9.1,3.3-9.8,3.2c11.4,7.2,20.2,16.7,24.4,21.7c-0.1-0.9-0.7-7.4,1.9-13
			c2.6-5.6,4-9.7,2.4-14.9c-0.1-0.4,0-1.1,0.7-1.8c2.6-2.8,10.1-10.6,18.3-15.3c5.5-3.2,10.8-8,15.5-13.8c-1.5,3.3-2.7,6-2.7,6
			c-25,31.3-20.1,77.5-20.1,77.5c4.4-8.4,5.4-17,15.5-33.1c10.1-16.1,6.4-44.3,6.4-44.3c2.1-6.7,7.2-14.6,7.2-14.6l-0.1-0.1
			c0.3-0.6,0.7-1.1,1-1.7v102.1c0,0.9,0.7,1.7,1.7,1.7c0.9,0,1.7-0.7,1.7-1.7v-88.6c0.8-1.6,1.5-3.2,2.2-4.7c0,0,0,0,0,0
			c1.8-2.4,4.4-4.2,7.2-4.9c0.1,0,0.1-0.1,0-0.2c-0.9-0.7-2.2-1-3.3-0.7c0.7-1.1,1.6-2.1,2.6-3c0.5-0.4,1.1-0.8,1.6-1.2
			c0.2-0.1,0.4-0.2,0.6-0.4c1.8-1,3.6-2,5.4-3l5-2.8c1.6-0.9,3.1-1.8,4.7-2.6c1.1-0.6,2.2-1.1,3.4-1.5c1.5-0.2,3-0.1,4.5,0.3
			c0.1,0,0.2-0.1,0.1-0.1c-0.6-1.1-1.7-1.8-2.9-1.9c-0.2-0.1-0.4-0.2-0.6-0.3c3.9-4.4,11.5-5.4,14.8-9.4l0,0
			c0.7-0.6,1.2-1.3,1.4-2.3c0.1-0.2,0-0.8-0.1-1C186.1,111.1,186,109.3,184.7,107.6z M154.5,101.4c0.1,0-0.1,5.5,0.1,11.1
			c0.2,5.4-0.3,8.9-0.3,10.3c-0.2-1.2-0.5-2.4-0.8-3.5C152.7,115.3,154.4,101.4,154.5,101.4z"/>
	</g>
	<path d="M150.7,229.1v-2.7l2.2-0.2c2.5-0.3,4.4-0.7,5.8-1.1c1.3-0.5,2.3-1.5,2.8-3c0.5-1.5,0.8-4.1,0.8-7.6v-48
		c0-3.6-0.3-6.2-0.8-7.7c-0.5-1.5-1.4-2.5-2.8-3c-1.3-0.5-3.3-0.8-5.8-1.1l-2.2-0.2v-2.7l16,0.3h15.2c9.7,0,18,1.3,24.7,3.9
		c6.7,2.6,11.9,6.7,15.4,12.3c3.5,5.6,5.3,12.9,5.3,21.9c0,6.4-1.1,12-3.2,16.9c-2.2,4.8-5.1,8.9-8.9,12.1c-3.7,3.2-8,5.7-12.8,7.3
		s-9.8,2.4-15.1,2.4h-20.7L150.7,229.1z M178.7,225.5h9.2c8.8,0,15.8-2.9,21.2-8.6c5.3-5.7,8-14.6,8-26.6c0-7.3-1-13.6-3.1-18.9
		c-2.1-5.2-5.4-9.2-10-12c-4.6-2.8-10.9-4.2-18.7-4.2h-13.6V213c0,2.1,0.1,4.1,0.4,6c0.3,1.9,0.9,3.5,1.9,4.7
		C175,224.9,176.6,225.5,178.7,225.5z"/>
</g>
</svg>
