<?xml version="1.0" encoding="utf-8"?>
<!-- Generator: Adobe Illustrator 27.7.0, SVG Export Plug-In . SVG Version: 6.00 Build 0)  -->
<svg version="1.1" xmlns="http://www.w3.org/2000/svg" xmlns:xlink="http://www.w3.org/1999/xlink" x="0px" y="0px"
	 viewBox="0 0 283.5 283.5" style="enable-background:new 0 0 283.5 283.5;" xml:space="preserve">
<style type="text/css">
	.st0{display:none;}
	.st1{display:inline;}
	.st2{fill:#010101;}
	.st3{display:inline;fill:#010101;}
</style>
<g id="Outline" class="st0">
	<rect x="365.5" y="472.9" style="display:inline;fill:none;" width="61.8" height="32.7"/>
	
		<text transform="matrix(1 0 0 1 377.9715 490.3204)" style="display:inline;fill:#F15A29; font-family:'Baskervville-Regular'; font-size:24px;">DA</text>
	<g class="st1">
		<path d="M141.7,3.5c76.3,0,138.2,61.9,138.2,138.2s-61.9,138.2-138.2,138.2S3.5,218.1,3.5,141.7S65.4,3.5,141.7,3.5 M141.7,0.5
			c-37.7,0-73.2,14.7-99.8,41.4C15.2,68.6,0.5,104,0.5,141.7s14.7,73.2,41.4,99.8c26.7,26.7,62.1,41.4,99.8,41.4
			s73.2-14.7,99.8-41.4c26.7-26.7,41.4-62.1,41.4-99.8s-14.7-73.2-41.4-99.8C214.9,15.2,179.4,0.5,141.7,0.5L141.7,0.5z"/>
	</g>
	<path class="st1" d="M377.4,258.8"/>
	<path class="st1" d="M377.4,258.8"/>
	<g class="st1">
		<g>
			<path class="st2" d="M374.1,494.2C374.1,494.2,374.1,494.3,374.1,494.2C374.1,494.3,374.1,494.3,374.1,494.2
				C374.1,494.3,374.1,494.3,374.1,494.2z"/>
		</g>
		<g>
			<path class="st2" d="M319.2,585.5c5.3-4.5,9-6.6,13.7-11.9c1.8-2.1,3.1-4.4,4.2-6.8c0.3-0.1,0.6-0.4,0.8-0.7
				c0.8-0.9,1.5-2.1,2.5-2.9c1.8-1.5,4.2-2.6,6.5-3.6c1.3-0.6,2.2-0.7,3.6,0c1.4,0.8,2.6,1.7,4.2,2.2c1.6,0.4,3.6,0.5,5.2,0.4
				c1.6-0.1,3.2-0.2,4.8-0.5c1.9-0.4,3.7-1,5.3-2c1.6-1,3.3-2,5-2.6c3.2-1.1,6.5-1.9,9.8-1.6c-1.8-0.6-3.2-2.1-4.9-2.9
				c-2.1-1.1-4.1-2.4-6.2-3.3c-3.6-1.5-7.9-1.5-11.7-1.4c-1.7,0.1-3.6,0.3-5.2,0.8c-1.9,0.6-3.1,1.9-4.3,3.3
				c-2.3,2.7-3.9,6.8-7.5,7.8c-1.3,0.4-2.7,0.4-4,0.6c-0.6,0.1-1.1,0.2-1.7,0.2c0.5-1.3,0.9-2.6,1.4-3.9c0.7-1.9,1.4-3.7,2.1-5.6
				c0.6-0.2,1.1-0.9,1.6-1.3c0.6-0.4,1.3-0.5,1.8-1c-0.5-0.4-1.5-0.9-2.3-1c2.2-6.6,4.2-13.2,6.1-19.9c0.1,0.8,0.2,1.6,0.4,2.5
				c0.5,2.4,1.9,4.5,2.4,7c0.4,1.9,0.7,4.9-0.1,6.7c2.9-2,4.8-5.7,6-9.3c-0.2-0.2-0.4-0.3-0.6-0.5c-0.3-0.3-0.7-0.6-1-0.9l-0.4-0.5
				l-0.1-0.1l-0.1-0.1l-0.1-0.1l-0.2-0.3l-0.2-0.3c-0.1-0.1-0.1-0.2-0.2-0.3c-0.1-0.2-0.2-0.4-0.3-0.6c-0.2-0.4-0.3-0.8-0.4-1.1
				c-0.1-0.4-0.2-0.7-0.3-1c-0.1-0.3-0.2-0.6-0.3-0.8c-0.1-0.2-0.2-0.5-0.3-0.6c-0.2-0.3-0.3-0.5-0.3-0.5s0.2,0.2,0.4,0.4
				c0.1,0.1,0.3,0.3,0.4,0.6c0.2,0.2,0.3,0.5,0.5,0.8c0.2,0.3,0.3,0.6,0.5,0.9c0.2,0.3,0.3,0.7,0.5,1c0.1,0.2,0.2,0.3,0.3,0.5
				c0.1,0.2,0.2,0.3,0.3,0.5l0.2,0.2l0,0.1l0,0l0.1,0.1l0.4,0.5c0.3,0.3,0.6,0.6,0.9,0.9c0.3,0.3,0.6,0.6,0.9,0.8
				c0.3,0.3,0.6,0.5,0.9,0.7c0.3,0.2,0.6,0.4,0.8,0.6c0.3,0.2,0.5,0.3,0.7,0.5c0.2,0.1,0.3,0.2,0.4,0.3c1,0.3,1.9,0.6,2.9,0.6
				c0.2-1.2,0.3-2.7,0.2-3.8c0.4,0.5,0.8,1.1,1.1,1.6c0.2,0.4,0.2,1.4,0.4,1.7c0.7,0.8,2.3,0.9,3.1,1c0.8,0.1,1.6,0.1,2.3,0
				c0,0,0.1,0,0.1,0c0.3-0.1,0.6-0.3,1-0.4c0.2-0.1,0.4-0.2,0.5-0.3c0.2-0.1,0.4-0.2,0.6-0.3c0.4-0.3,0.8-0.5,1.2-0.9
				c0.4-0.3,0.8-0.7,1.2-1c0.4-0.4,0.8-0.7,1.2-1.1c0.4-0.4,0.7-0.8,1.1-1.2c0.3-0.4,0.7-0.8,1-1.2c0.3-0.4,0.6-0.8,0.9-1.2
				c0.3-0.4,0.5-0.7,0.8-1.1c0.5-0.7,0.9-1.2,1.2-1.6c0.3-0.4,0.5-0.6,0.5-0.6s-0.1,0.3-0.3,0.7c-0.2,0.4-0.5,1.1-0.9,1.8
				c-0.2,0.4-0.4,0.8-0.7,1.2c-0.2,0.4-0.5,0.8-0.8,1.3c-0.3,0.4-0.6,0.9-1,1.3c-0.4,0.4-0.7,0.9-1.1,1.2c-0.4,0.4-0.8,0.8-1.2,1.1
				c-0.4,0.4-0.9,0.7-1.3,1c-0.1,0.1-0.3,0.2-0.4,0.3c1,0.6,2.1,1,3.2,1.1c1.9,0.3,4.1,0.2,6-0.3c1.2-0.4,4.7-3.4,6-1.9
				c0.4-2.7,2.4-4.8,1.9-7.7c-0.2-1.3-0.7-2.4-1.4-3.3c3.3,0,5.7-0.9,7.1-4.8c1.6-4.3,0-9,2-13.3c0.3-0.6,1.3-1.6,1.1-2.4
				c-0.1-0.5-0.6-0.6-1.1-0.5c0.1,0,0.2,0,0.2,0s-0.3,0-0.7,0c-0.2,0-0.5,0.1-0.8,0.2c-0.3,0.1-0.6,0.2-1,0.4
				c-0.3,0.1-0.7,0.3-1.1,0.5c-0.4,0.2-0.8,0.4-1.2,0.6c-0.2,0.1-0.4,0.2-0.7,0.3c-0.2,0.1-0.4,0.2-0.7,0.3
				c-0.4,0.2-0.9,0.4-1.3,0.7c-0.4,0.2-0.9,0.5-1.3,0.8c-0.4,0.3-0.8,0.5-1.2,0.8c-0.4,0.3-0.7,0.6-1,0.9c-0.3,0.3-0.6,0.6-0.9,0.9
				c-0.2,0.3-0.5,0.5-0.6,0.8c-0.2,0.2-0.3,0.5-0.4,0.7c-0.1,0.2-0.2,0.4-0.2,0.5c-0.1,0.1-0.1,0.2-0.1,0.2s0-0.1,0-0.2
				c0-0.1,0-0.3,0.1-0.5c0.1-0.2,0.1-0.5,0.3-0.8c0.1-0.3,0.3-0.6,0.5-0.9c0.1-0.2,0.2-0.3,0.4-0.5c0.1-0.2,0.3-0.3,0.4-0.5
				c0.3-0.3,0.6-0.7,1-1c0.4-0.3,0.8-0.6,1.2-0.9c0.4-0.3,0.9-0.6,1.3-0.8c0.5-0.2,0.9-0.5,1.4-0.7c0.2-0.1,0.5-0.2,0.7-0.3
				c0.2-0.1,0.5-0.2,0.7-0.3c0.4-0.2,0.9-0.3,1.3-0.5c0.3-0.1,0.6-0.2,0.9-0.3c0.3-0.4,0.6-0.9,0.8-1.4c1.1-2.3,1-4.1,0.8-6.6
				c-0.1-1.9-1.2-4.5-0.4-6.3c-1.2,0.3-2.4,0.5-3.6,0.3c1.3-0.8,3-1.5,3.8-2.8c-5.9-1.4-8.9-7.7-13.2-11.2c-2.1-1.7-4.9-2.4-7.6-2.1
				c-0.1,0.1-0.2,0.1-0.3,0.2c-0.2,0.1-0.5,0.3-0.7,0.4l-0.4,0.1c-0.1,0-0.3,0.1-0.4,0.1c-0.3,0.1-0.5,0.2-0.8,0.2l-0.8,0.2
				c-0.3,0-0.5,0.1-0.8,0.1c-0.1,0-0.3,0-0.4,0l-0.4,0c-0.1,0-0.3,0-0.4,0l-0.1,0l-0.1,0.5c-0.1,0.3-0.2,0.5-0.3,0.8
				c-0.2,0.5-0.5,1-0.8,1.4c-0.2,0.2-0.4,0.4-0.5,0.6c-0.2,0.2-0.4,0.4-0.6,0.5c-0.4,0.3-0.8,0.6-1.2,0.9c-0.9,0.6-1.7,1.1-2.5,1.6
				c-0.2,0.1-0.4,0.3-0.6,0.4c-0.2,0.1-0.4,0.3-0.6,0.4c-0.2,0.2-0.4,0.3-0.5,0.5c-0.2,0.2-0.3,0.3-0.5,0.5
				c-0.1,0.2-0.3,0.4-0.4,0.6l-0.3,0.6l-0.3,0.7c-0.1,0.2-0.1,0.4-0.2,0.7c-0.1,0.4-0.1,0.9,0,1.4c0.1,0.5,0.2,0.9,0.3,1.4
				c0.1,0.5,0.3,0.9,0.5,1.4c0.2,0.5,0.3,1,0.4,1.4c0.1,0.5,0.3,1,0.3,1.5c0,0.2,0.1,0.5,0.1,0.8c0,0.3,0,0.5-0.1,0.7
				c0.1-0.2,0-0.5,0-0.7c0-0.2-0.1-0.5-0.2-0.7c-0.1-0.5-0.3-0.9-0.5-1.4l-0.6-1.4c-0.2-0.5-0.4-0.9-0.6-1.4c-0.2-0.5-0.3-1-0.4-1.5
				c-0.1-0.5-0.1-1.1,0-1.6c0.1-0.3,0.1-0.6,0.2-0.8l0.2-0.7c0.1-0.3,0.3-0.5,0.4-0.7c0.1-0.2,0.3-0.4,0.5-0.7
				c0.2-0.2,0.4-0.4,0.5-0.6c0.2-0.2,0.4-0.4,0.6-0.5c0.2-0.2,0.4-0.3,0.6-0.5c0.2-0.2,0.4-0.3,0.6-0.4c0.8-0.6,1.7-1.1,2.6-1.6
				c0.2-0.1,0.4-0.3,0.6-0.4c0.2-0.1,0.4-0.3,0.6-0.4c0.2-0.1,0.4-0.3,0.6-0.5c0.2-0.2,0.4-0.3,0.5-0.5c0.1-0.2,0.3-0.3,0.4-0.5
				l0.2-0.3l0.1-0.1l0.1-0.2c0.1-0.2,0.2-0.4,0.3-0.6l0.2-0.7l0.1-0.3l0.3,0l0.4,0c0.1,0,0.3,0,0.4,0l0.4,0c0.1,0,0.3,0,0.4,0
				c0.3,0,0.5,0,0.8-0.1l0.8-0.1c0.3,0,0.5-0.1,0.8-0.1c0.1,0,0.3-0.1,0.4-0.1c0,0-0.1-0.7-0.3-1c-0.9-1.1-1.5-2.7-2.8-3.8
				c-4.6-3.7-11.2,3.1-12.9,7.3c-0.4-0.9-1.3-1.5-1.9-2.3c-0.2,0.1-0.4,0.3-0.7,0.5c-0.3,0.2-0.7,0.5-1.2,0.8
				c-0.4,0.3-0.9,0.7-1.4,1.1c-0.5,0.4-1.1,0.9-1.6,1.4c-0.6,0.5-1.2,1.1-1.8,1.6c-0.6,0.6-1.2,1.1-1.6,1.8
				c-0.4,0.7-0.6,1.5-0.7,2.3l0,0.7c0,0.2,0,0.4-0.1,0.7l0,0.4l-0.1,0.4c0,0.1-0.1,0.2-0.1,0.4l-0.1,0.3c-0.2,0.4-0.4,0.8-0.6,1.2
				c-0.2,0.4-0.3,0.8-0.4,1.1c0,0.4-0.1,0.8-0.1,1.2c0,0.4,0,0.8,0,1.1c0,0.4,0,0.7,0.1,1.1c0.1,0.4,0.1,0.7,0.1,1
				c0.1,0.3,0.1,0.6,0.2,0.9c0.1,0.3,0.2,0.6,0.2,0.8c0,0.1,0.1,0.3,0.1,0.4c0,0.1,0.1,0.2,0.1,0.3c0.1,0.2,0.2,0.4,0.2,0.6
				c0.2,0.4,0.3,0.6,0.4,0.8c0.1,0.2,0.1,0.3,0.1,0.3s-0.1-0.1-0.2-0.3c-0.1-0.2-0.3-0.4-0.5-0.8c-0.1-0.2-0.2-0.4-0.3-0.6
				c-0.1-0.1-0.1-0.2-0.2-0.3c-0.1-0.1-0.1-0.2-0.2-0.4c-0.1-0.3-0.2-0.5-0.3-0.8c-0.1-0.3-0.2-0.6-0.3-0.9c-0.1-0.3-0.2-0.7-0.2-1
				c-0.1-0.4-0.1-0.8-0.2-1.1c-0.1-0.4,0-0.8,0-1.2c0-0.4,0.1-0.8,0.1-1.2c0.1-0.5,0.2-0.9,0.4-1.4c0.2-0.4,0.4-0.8,0.5-1.2l0.1-0.3
				c0-0.1,0-0.2,0.1-0.3l0.1-0.3l0-0.3c0-0.2,0-0.4,0-0.6l0-0.7c0.1-1,0.3-1.9,0.9-2.8c0.5-0.8,1.2-1.4,1.9-2
				c0.7-0.5,1.3-1.1,1.9-1.5c0.6-0.5,1.2-0.9,1.8-1.3l0.4-0.3c-1-2.5-5-2.5-7.2-1.9c-1.6,0.4-2.6,1.1-3.8,2.1
				c-0.9,0.6-2.3,1.9-3.6,1.8c0,0.1,0.1,0.2,0.1,0.3c0.1,0,0.2,0.1,0.3,0.2c0.3,0.3,0.7,0.8,1,1.5c0.1,0.3,0.3,0.7,0.4,1.1
				c0.1,0.4,0.2,0.8,0.2,1.4c0,0.4,0,0.9,0,1.4c0,0.5,0,0.9-0.1,1.4l0,0.7l0,0.3l0,0.4c0,0.5,0.1,0.9,0.2,1.3
				c0.1,0.4,0.2,0.8,0.3,1.2c0,0.2,0.1,0.4,0.2,0.6c0.1,0.2,0.1,0.4,0.2,0.5c0.1,0.2,0.1,0.3,0.2,0.5c0.1,0.2,0.1,0.3,0.2,0.4
				c0.1,0.2,0.2,0.5,0.4,0.6c0.2,0.3,0.4,0.5,0.4,0.5s-0.2-0.1-0.5-0.4c-0.2-0.1-0.3-0.3-0.5-0.6c-0.2-0.2-0.4-0.5-0.6-0.8
				c-0.2-0.3-0.4-0.7-0.5-1.1c-0.1-0.2-0.2-0.4-0.2-0.6c-0.1-0.2-0.1-0.4-0.2-0.7c-0.1-0.5-0.2-0.9-0.3-1.4l0-0.4c0-0.1,0-0.3,0-0.4
				c0-0.3,0-0.5,0-0.8c0-0.5,0.1-1,0.1-1.4c0-0.5,0.1-0.9,0.1-1.4c0-0.3,0-0.7-0.1-1c-0.4-0.3-0.8-0.5-1.2-0.7
				c-2.3-0.8-6.6-1.1-6.8,2.2c-0.1,2.5,0.3,4.8,0.1,7.4c-0.2,2.5-0.5,5-0.6,7.6c-0.1,1.8,0.2,3.5,0.6,5.2c0.2,0.3,0.4,0.8,0.6,1.3
				c0.1,0.3,0.3,0.6,0.4,0.9c0.1,0.3,0.4,0.6,0.5,0.9c0.2,0.3,0.5,0.6,0.7,1c0.1,0.1,0.2,0.3,0.4,0.4c0.1,0.2,0.2,0.3,0.4,0.4
				l0.4,0.4c0.1,0.1,0.3,0.2,0.5,0.4c0.3,0.2,0.6,0.5,1,0.7c0.3,0.2,0.6,0.4,0.9,0.5c0.3,0.2,0.6,0.3,0.9,0.5c0.6,0.3,1,0.6,1.3,0.8
				c0.3,0.2,0.5,0.4,0.5,0.4s-0.2-0.1-0.6-0.2c-0.2-0.1-0.4-0.1-0.6-0.2c-0.2-0.1-0.5-0.2-0.8-0.2c-0.3-0.1-0.6-0.2-1-0.3
				c-0.3-0.1-0.7-0.3-1.1-0.5c-0.4-0.2-0.7-0.4-1.1-0.7c-0.2-0.1-0.4-0.3-0.5-0.4l-0.5-0.5c-0.2-0.2-0.3-0.3-0.4-0.5
				c-0.1-0.2-0.3-0.4-0.4-0.5c-0.1-0.2-0.2-0.3-0.3-0.5c-0.1-0.2-0.2-0.3-0.3-0.5c-0.2-0.4-0.4-0.7-0.5-1.1c0-0.1,0-0.1-0.1-0.2
				c-2.5,1.6-7,9-2.7,10.3c1.7,0.6,3.5,0.6,5.1,1.4c0.3,0.2,0.7,0.4,1,0.5c0.2,0,0.3,0.1,0.5,0.2c0.3,0.1,0.6,0.2,0.9,0.2
				c0.3,0.1,0.7,0.1,1,0.2c0.3,0.1,0.7,0.2,1,0.2c0.3,0,0.7,0.1,1,0.2c0.3,0,0.7,0.1,1,0.2c0.3,0,0.6,0.1,1,0.1
				c0.3,0,0.6,0.1,0.9,0.1c1.1,0.1,1.8,0.3,1.8,0.3s-0.7,0.1-1.8,0.2c-0.3,0-0.6,0-0.9,0c-0.3,0-0.6,0-1,0c-0.7,0-1.4-0.1-2.2-0.2
				c-0.4,0-0.7-0.2-1.1-0.2c-0.3-0.1-0.7-0.2-1-0.3c-0.4-0.1-0.7-0.3-1-0.4c-0.3-0.1-0.5-0.3-0.8-0.4c0,0,0,0-0.1,0
				c-3.7,1.6-5.8,6.9-6,10.4c1.8-1.9,4.4-2.7,7.1-2.8c2.5-0.1,5.6-1.2,7.5-3c-0.6,1.6-1.3,2.8-1.3,4.5c0.5-0.8,2.6-3.3,4.1-3.7
				c-1.3,4.4-2.6,8.9-4.1,13.3c-0.1,0-0.2,0-0.2,0c-0.7-0.2-1.4-0.4-2.2-0.5c0.6,1.2,1.2,2.4,1.4,3.7c-1.5,4.4-3,8.8-4.6,13.1
				c-2.2,5.9-4.7,11.8-8.6,16.8c-0.8,1.1-1.8,2.1-2.7,3c-0.4-1-1.1-2-1.5-2.7c0,1.1-0.6,2.3-1,3.3c-0.4,0.9-1.2,1.8-1.2,2.8
				c0.1,0,0.1-0.1,0.2-0.2l0.1,0c-0.3,0.3-0.6,0.5-0.9,0.8c-2.7,2.3-6,5-8.7,7.2L319.2,585.5z M375.6,525.2
				c-0.1-0.1-0.2-0.3-0.3-0.5c-0.1-0.2-0.3-0.4-0.4-0.7c-0.1-0.3-0.3-0.5-0.6-0.8c-0.2-0.3-0.5-0.6-0.7-0.8
				c-0.3-0.3-0.6-0.6-0.9-0.9c-0.4-0.3-0.7-0.6-1.1-0.8c-0.8-0.6-1.7-1-2.8-1.5c-1-0.5-2.1-0.8-3.3-1.2c-0.6-0.2-1.2-0.3-1.8-0.4
				c-0.3-0.1-0.6-0.1-0.9-0.2c-0.2,0-0.3-0.1-0.5-0.1l-0.5-0.1c-1.4-0.4-2.7-1.2-3.7-2.3c-1-1.1-1.7-2.3-2.3-3.5
				c-0.3-0.6-0.6-1.2-0.8-1.8c-0.1-0.3-0.2-0.6-0.4-0.9l-0.2-0.4l-0.2-0.4c-0.5-1.1-1.1-2-1.8-2.8c-0.7-0.8-1.6-1.4-2.4-2
				c-0.8-0.5-1.6-0.9-2.4-1.2c-0.7-0.3-1.4-0.5-2-0.6c-0.6-0.1-1-0.2-1.3-0.2c-0.3,0-0.5-0.1-0.5-0.1s0.2,0,0.5,0c0.3,0,0.8,0,1.4,0
				c0.6,0,1.3,0.1,2.1,0.3c0.4,0.1,0.8,0.2,1.3,0.4c0.4,0.2,0.9,0.3,1.4,0.6c0.9,0.5,1.9,1.1,2.8,1.9c0.9,0.8,1.7,1.9,2.3,3.1
				l0.2,0.5l0.2,0.4c0.1,0.3,0.3,0.6,0.4,0.9c0.3,0.6,0.5,1.2,0.8,1.7c0.6,1.1,1.3,2.2,2.1,3.1c0.4,0.4,0.9,0.8,1.4,1.2
				c0.2,0.2,0.5,0.3,0.8,0.4c0.1,0.1,0.3,0.1,0.4,0.2c0.1,0.1,0.3,0.1,0.4,0.1l0.4,0.1c0.1,0,0.3,0.1,0.5,0.1c0.3,0.1,0.6,0.1,1,0.2
				c0.7,0.2,1.3,0.3,1.9,0.5c1.2,0.4,2.4,0.9,3.4,1.5c1.1,0.6,2,1.2,2.8,1.9c0.4,0.3,0.8,0.7,1.1,1c0.3,0.4,0.6,0.7,0.9,1
				c0.2,0.3,0.5,0.7,0.6,1c0.2,0.3,0.3,0.6,0.4,0.9c0.1,0.3,0.2,0.5,0.3,0.7C375.6,524.9,375.7,525.1,375.6,525.2
				c0.2,0.3,0.2,0.4,0.2,0.4S375.8,525.5,375.6,525.2z M394.1,515c-0.4,0.2-0.9,0.5-1.6,0.8c-0.7,0.2-1.7,0.5-2.8,0.6
				c-0.5,0.1-1.1,0.1-1.7,0.1c-0.6,0-1.3-0.1-1.9-0.2c-1.3-0.2-2.8-0.6-4.2-1.3c-1.4-0.7-2.8-1.6-4.1-2.8c-1.2-1.2-2.3-2.5-3.5-3.4
				c-0.2-0.1-0.3-0.2-0.5-0.3l-0.2-0.1l-0.2-0.1c-0.2-0.1-0.3-0.2-0.5-0.2l-0.6-0.2c-0.8-0.2-1.6-0.4-2.5-0.6
				c-0.9-0.2-1.7-0.4-2.6-0.7c-0.4-0.1-0.9-0.3-1.3-0.5c-0.2-0.1-0.4-0.2-0.6-0.3l-0.3-0.1l-0.1,0l-0.1,0l0,0l0,0l-0.1-0.1
				c-1.6-0.9-2.9-2.3-3.8-3.7c-1-1.5-1.5-3.1-1.7-4.7c-0.1-0.8-0.2-1.5-0.2-2.3c0-0.7,0-1.4,0.1-2.1c0.1-1.3,0.3-2.5,0.6-3.6
				c0.2-1.1,0.5-1.9,0.8-2.7c0.2-0.7,0.5-1.3,0.6-1.7c0.2-0.4,0.2-0.6,0.2-0.6s0,0.2-0.1,0.6c-0.1,0.4-0.2,1-0.4,1.7
				c-0.3,1.5-0.7,3.7-0.7,6.2c0,1.3,0.1,2.7,0.4,4.1c0.3,1.4,0.9,2.8,1.7,4.1c0.9,1.3,2.1,2.3,3.5,3.2l0.1,0.1l0,0l0,0l0.1,0
				l0.3,0.1c0.2,0.1,0.4,0.2,0.6,0.3c0.4,0.1,0.7,0.3,1.1,0.4c0.8,0.2,1.6,0.4,2.5,0.6c0.9,0.2,1.7,0.4,2.6,0.6l0.6,0.2
				c0.2,0.1,0.5,0.2,0.7,0.3l0.3,0.2l0.3,0.2c0.2,0.1,0.4,0.2,0.6,0.4c0.8,0.6,1.4,1.2,2,1.9c0.3,0.3,0.6,0.6,0.8,1l0.2,0.2l0.1,0.1
				l0.1,0.1l0.4,0.5c0.1,0.1,0.2,0.1,0.2,0.2c1-0.1,2-0.2,2.9-0.6c1-0.4,1.9-0.9,2.6-1.6c0.2-0.2,0.4-0.4,0.5-0.5l0.3-0.3l0.1-0.1
				l0.1-0.2l0.5-0.6l0.4-0.6c0.5-0.9,1-1.8,1.3-2.8c0.3-1,0.4-2,0.4-3c0-1-0.2-2-0.4-3c-0.3-1-0.6-1.9-1.1-2.8l-0.1-0.2l0,0l0,0l0,0
				l-0.1-0.1l-0.2-0.3l-0.2-0.3l-0.2-0.3c-0.3-0.4-0.6-0.8-0.9-1.1c-0.7-0.7-1.5-1.4-2.3-2c-0.8-0.6-1.7-1.1-2.7-1.5
				c-0.9-0.4-1.9-0.7-2.9-0.9c-0.5-0.1-1-0.2-1.5-0.2l-0.4,0l-0.4,0l-0.4,0l-0.1,0h0l0,0l-0.2,0c-0.8,0.1-1.6,0.6-2,1.4
				c-0.4,0.7-0.5,1.7-0.3,2.5l0.1,0.3l0,0.1l0,0l0,0l0.1,0.2c0.1,0.1,0.1,0.2,0.2,0.2c0.1,0.1,0.1,0.2,0.2,0.3
				c0.3,0.3,0.7,0.6,1.2,0.9c0,0,0.1,0,0.1,0.1l0,0c0-0.1,0-0.3,0.1-0.4c0-0.1,0.1-0.3,0.1-0.4c0.1-0.3,0.3-0.5,0.5-0.7
				c0.1-0.1,0.2-0.2,0.3-0.3c0.1-0.1,0.2-0.2,0.4-0.3c0.3-0.1,0.5-0.3,0.8-0.3c0.3-0.1,0.6-0.1,0.9-0.1c0.3,0,0.6,0,0.9,0.1
				c0.3,0.1,0.6,0.1,0.8,0.2c0.3,0.1,0.5,0.2,0.8,0.4c0.5,0.3,0.9,0.7,1.3,1.1c0.2,0.2,0.3,0.5,0.5,0.7c0.1,0.3,0.2,0.5,0.3,0.8
				c0,0.1,0.1,0.3,0.1,0.4c0,0.1,0,0.3,0,0.4c0,0.1,0,0.3,0,0.4c0,0.1,0,0.3-0.1,0.4c0,0.1-0.1,0.3-0.1,0.4
				c-0.1,0.1-0.1,0.2-0.2,0.4c-0.1,0.2-0.3,0.4-0.5,0.6c0-0.3,0.1-0.5,0.1-0.7c0-0.2,0-0.5,0-0.7c0-0.2-0.1-0.4-0.1-0.6
				c0-0.1-0.1-0.2-0.1-0.3c0-0.1-0.1-0.2-0.1-0.3c-0.1-0.2-0.2-0.3-0.3-0.5c-0.1-0.2-0.3-0.3-0.4-0.4c-0.1-0.1-0.3-0.3-0.5-0.4
				c-0.2-0.1-0.3-0.2-0.5-0.3c-0.2-0.1-0.4-0.2-0.5-0.3c-0.2-0.1-0.4-0.2-0.6-0.2c-0.2-0.1-0.4-0.1-0.6-0.1c-0.2,0-0.4,0-0.6,0
				c-0.1,0-0.2,0-0.3,0l-0.3,0c-0.2,0-0.4,0.1-0.5,0.2c-0.2,0.1-0.4,0.2-0.5,0.3c-0.1,0.1-0.2,0.2-0.4,0.4c0,0.1,0,0.1-0.1,0.2
				c0,0,0,0,0,0.1c0.7,0.5,1.5,0.9,2.3,1.3l0,0l0,0c0.6,0.4,1.2,0.8,1.7,1.2l1.8,1.1l1.9,1l2,0.8l0.3,0l-0.3,0h0l0,0
				c-0.7-0.2-1.4-0.4-2.1-0.6c-0.7-0.3-1.3-0.5-2-0.8l-1.9-0.9c-0.6-0.3-1.3-0.7-1.9-1.1l0,0c-0.9-0.5-1.9-0.9-2.9-1.5
				c-0.5-0.3-1-0.6-1.4-1c-0.1-0.1-0.2-0.2-0.3-0.3c-0.1-0.1-0.2-0.3-0.3-0.4l-0.1-0.2l0,0l0,0c0,0,0,0,0,0c0,0.3-0.1,0.6-0.1,0.9
				c-0.1,0.8-0.1,1.6-0.2,2.4c-0.1,0.8-0.1,1.5-0.2,2.2c-0.1,0.6-0.2,1.2-0.3,1.5c-0.1,0.4-0.2,0.6-0.2,0.6s-0.1-0.2-0.2-0.6
				c-0.1-0.4-0.2-0.9-0.4-1.5c-0.1-0.6-0.2-1.4-0.3-2.2c0-0.4-0.1-0.8-0.1-1.2c0-0.4,0-0.9,0-1.3c0-0.4,0.1-0.9,0.2-1.3
				c0.1-0.4,0.2-0.9,0.3-1.3c0.1-0.4,0.3-0.8,0.5-1.1c0.2-0.3,0.3-0.6,0.5-0.9c0.1-0.2,0.1-0.3,0.2-0.5c0.6-1.1,1.7-2,3.1-2.2l0.2,0
				l0,0l0,0l0.1,0l0,0l0.1,0l0.4,0l0.4,0l0.4,0c0.6,0,1.1,0.1,1.7,0.2c1.1,0.2,2.2,0.5,3.2,1c1,0.4,2,1,3,1.6
				c0.9,0.7,1.8,1.4,2.6,2.2c0.4,0.4,0.7,0.9,1.1,1.4l0.3,0.4l0.2,0.3l0.2,0.4l0,0.1l0,0.1l0,0l0.1,0.2c0.5,1,0.9,2.1,1.1,3.2
				c0.3,1.1,0.4,2.2,0.4,3.4c0,1.1-0.2,2.3-0.6,3.3c-0.4,1.1-0.9,2.1-1.6,3l-0.5,0.7l-0.5,0.6l-0.1,0.1c-0.1,0.1-0.1,0.1-0.2,0.2
				l-0.3,0.3c-0.2,0.2-0.4,0.4-0.6,0.5c-0.9,0.7-1.9,1.2-3,1.4c-1,0.2-2,0.3-3,0.2c1,1,2.2,1.8,3.3,2.5c1.3,0.7,2.6,1.2,3.8,1.5
				c1.2,0.3,2.4,0.5,3.4,0.4c1,0,1.9-0.1,2.7-0.3C393.1,515.2,393.7,515.1,394.1,515c0.3-0.2,0.5-0.3,0.5-0.3S394.5,514.8,394.1,515
				z"/>
		</g>
	</g>
	
		<image style="display:inline;overflow:visible;" width="562" height="577" xlink:href="../../Desktop/Screenshot 2023-12-08 at 6.02.33 pm.png"  transform="matrix(1 0 0 1 -894.3284 -248.0435)">
	</image>
	<path class="st3" d="M-637,402.3c0,0,27.9,21.1,38,45.3c7.7,18.5,4.2,30.5,13.5,35.4c0,0,15,0.1,22,8.4c0,0-3.1,2.7-5.4,3.3
		c-2.3,0.6-12,0.4-19.4,11.1c-2.7,3.8-4.5,5.1-7.3,5.1c0,0-1.6-12.2,1.6-17.4c3.2-5.2,3.8-8.2,0.9-14.3c-3.9-8.3-7.2-29.9-12-37.8
		c-4.8-8-20.1-29.7-36.5-38.2L-637,402.3z"/>
	<path class="st1" d="M-605.3,439.2c-0.2,0.1-0.3,0.5-0.6,1c-1.1,2.1-1.6,4.6-2,6.9c-0.4,2.6-0.5,5.2-0.7,7.9
		c-0.4,3.9-0.6,8.2-1.8,11.9c-1.2,3.7-2.9,6.8-5.1,10c-0.6,0.9-2.1,2.5-3,3.1c-0.7,0.5-1.8,1.4-3.8,1.9c0,0,1.5-2.3,2.8-4.3
		c0.3-0.5,0.7-1,0.9-1.6c1.7-3.4,1.9-7.2,2.2-11c0.2-2.7,0.3-5.5,0.6-8.2c0.3-3.1,0.8-6.1,1.5-9.1c0.7-3.3,2.7-6.3,4.5-9.2
		c0.9-1.4,1.6-2.4,2.8-3.5L-605.3,439.2z"/>
</g>
<g id="Layer_3">
	<g>
		<path d="M41.8,130.5v-2.7l1-0.1c2.5-0.4,4.6-0.9,6.2-1.5c1.6-0.6,3-1.7,4.2-3.2c1.2-1.5,2.3-3.5,3.4-6.1l26.1-63.4h3.7l25.5,63.4
			c1.4,3.5,3,6.1,4.6,7.8c1.7,1.7,3.9,2.6,6.8,2.9l2.2,0.2v2.7l-13.4-0.3l-17.3,0.3v-2.7l2.2-0.2c2.5-0.3,4.3-0.8,5.4-1.6
			c1.1-0.8,1.6-1.9,1.6-3.3c0-1.4-0.5-3.4-1.5-5.8l-5.6-14H66.4l-5.8,14c-0.5,1.3-0.9,2.5-1.3,3.5c-0.4,1-0.5,2-0.5,2.8
			c0,1.4,0.6,2.4,1.8,3.1c1.2,0.7,3.2,1.2,5.9,1.4l2.2,0.2v2.7l-13.7-0.3L41.8,130.5z M67.8,99.3h27.8L82,65L67.8,99.3z"/>
	</g>
	<path d="M150.7,229.1v-2.7l2.2-0.2c2.5-0.3,4.4-0.7,5.8-1.1c1.3-0.5,2.3-1.5,2.8-3c0.5-1.5,0.8-4.1,0.8-7.6v-48
		c0-3.6-0.3-6.2-0.8-7.7c-0.5-1.5-1.4-2.5-2.8-3c-1.3-0.5-3.3-0.8-5.8-1.1l-2.2-0.2v-2.7l16,0.3h15.2c9.7,0,18,1.3,24.7,3.9
		c6.7,2.6,11.9,6.7,15.4,12.3c3.5,5.6,5.3,12.9,5.3,21.9c0,6.4-1.1,12-3.2,16.9c-2.2,4.8-5.1,8.9-8.9,12.1c-3.7,3.2-8,5.7-12.8,7.3
		s-9.8,2.4-15.1,2.4h-20.7L150.7,229.1z M178.7,225.5h9.2c8.8,0,15.8-2.9,21.2-8.6c5.3-5.7,8-14.6,8-26.6c0-7.3-1-13.6-3.1-18.9
		c-2.1-5.2-5.4-9.2-10-12c-4.6-2.8-10.9-4.2-18.7-4.2h-13.6V213c0,2.1,0.1,4.1,0.4,6c0.3,1.9,0.9,3.5,1.9,4.7
		C175,224.9,176.6,225.5,178.7,225.5z"/>
	<g>
		<path class="st2" d="M190.1,126.6c-0.6-1.5-1.2-2.9-3.1-3.5c0,0-3.2,1.2-2.5,6.4c0.7,5.2,4.5,5.8,3.8,10.3s-2,6-2,6s4.6,0,7.7-4
			c3.1-4,1.7-8.1,1.7-8.1S191.6,130,190.1,126.6z"/>
	</g>
	<g>
		<path d="M241.8,95.1c0,0-2.4,2.4-5.4,4.4c-3.5,2.4-4.9,1.1-4.9,1.1c5.7-3.6,5.7-4,8.5-7.6c3.8-5-0.1-8.5,1.2-13.7
			c-1.3,0.3-3.3-0.3-4.7-0.6c1.5-0.9,3.5-1.5,4.4-3c-10-3-13.5-20.9-26.1-15.3c-1.1,0.2-2.3,0.4-3.4,0.2c-1.1,5.5-6.8,5.6-9.2,10.1
			c-2.1,4-1.3,8.3-0.9,11.4c0.2,1.7-1.8-1.9-2.2-8.3c-0.3-4.7,2.7-8.6,6.2-10.4c2-1.1,3.7-3.1,4.1-5.5c1.7,0.3,7.6-1.2,7.6-1.2
			c-5.7-7.5-16.9-3.3-19.4,4.9c0.3-1.1-0.6-2.6-1.2-3.6c-10.4,8.6-10.5,20-11.1,23.8c-0.3,1.7-3.4-13.5,4.8-22.1
			c2.1-2.2-4.1-2.6-6.1-1.9c-2.5,0.9-5.6,4.2-8.9,4.3c0,0.1,0.2,0.3,0.5,0.6c1.6,1.5,1.8,3.1,1.4,5.1c-1.6,7.5,0.9,11.1,0.8,11
			c-3.6-3-4-7.3-3.7-11.5c-2.5-1.9-6.7-1.9-7.2,2.3c0.1,5.7-0.7,9-1.5,14.7c-0.6,8,3,12.5,9.6,16.2c-3.9-1.1-8.9-1-9.8-5.3
			c-3,1.7-4,7.2-1.2,11.4c2.8,4.2,9.3,7.3,14,6.5c0,0-0.8,1.3-1,2.7c1.5-0.3,3.6-0.1,5.4-0.4c0.9,0.4,2.2,0.5,3.6,1.1
			c0,0-0.1,0-0.1,0.1c-4.8,3.6-9.9,4.3-12.7,5.3c-2.2,0.8-3.7,1.9-5.1,2.8c-3.1,2-4.6,2.5-7.6,4.6c-1.1,0.8-2.8,1.8-4.5,2.8
			c-0.3-0.1-0.5-0.4-0.6-0.9c-0.1-0.5,0-1,0.1-1.5c0.1-0.4,0.4-1.3,0.4-1.7c2.3-2.7,3.9-4.7,5.5-7.9c0.7-1.4,1.1-3,0.9-4.5
			c-0.2-2-1.2-5.2-1.9-6.8c-2.1-4.7-5-9.2-5.5-10.1c0-0.1-0.1-0.2-0.1-0.3c0,0,0,0-0.1-0.1c0,0,0,0,0,0c0,0,0,0,0,0
			c0,0-0.1,0-0.2,0.1c0,0-6.6,6.1-8.2,13.3c-1.8,8,6.6,13.6,7.4,16.4c0,0,0,0,0,0c0,0.6-0.1,1.3-0.2,1.9c-0.3,1.5-0.8,3-1.5,4.4
			c-1.5,0.8-2.6,1.4-2.6,1.4l-0.3-3.3c0,0-2.4,6.5-5,9c-1.3,1.2-3,4-4.3,6.5V46.9c0-0.9-0.7-1.7-1.7-1.7c-0.9,0-1.7,0.7-1.7,1.7
			v85.2c-0.6,1.3-1.3,2.6-2.1,3.9c-5.6,3.4-15.4,7.5-24.6,9c-8.6,1.5-9.1,5-14.2,5c-7.3,0-11.8,3.7-12.5,4.5
			C71.9,168.5,84,167,89.6,165c1.2-0.4,3.1-1.7,3.1-1.7c5.7-3.1,4.3-8.2,7.1-10.8c3.7-3.4,8.6-4.6,18.1-6.2
			c4.2-0.7,8.5-2.6,12.9-4.5c-3.9,5.8-8.7,11.5-14.6,15.6c-15,10.3-21.7,17.1-23.5,18.9c-0.3,0.3-0.6,0.5-0.9,0.5
			c-1.8,0-8.5,0.4-13.8,5.5c-2.2,2-5.2,2.3-7.6,2.1c10.9,6.6,18.4,14.8,22.1,19.4c-0.3-2.8-0.4-6.8,1.1-10c2.5-5.3,3.9-9.2,2.4-14.2
			c-0.1-0.4,0-1,0.6-1.7c2.5-2.6,9.7-10,17.5-14.5c5-2.8,9.8-7.1,14.1-12.2c-1.4,3-2.2,5.5-2.2,5.5c-28.1,32.2-18.2,76.1-18.2,76.1
			c4.1-8.3,5-16.7,14.5-32.6c9.5-15.9,6.9-43.7,6.9-43.7c1.4-4.8,5.2-12.6,7.2-16.6v101.5c0,0.9,0.7,1.7,1.7,1.7
			c0.9,0,1.7-0.7,1.7-1.7v-86.2c1.3-2.6,3.2-6.7,3.2-6.7c1.7-2.4,4.2-4.7,7.1-5.5c0.1,0,0.1-0.1,0-0.2c-0.9-0.7-1.8-1-2.9-0.7
			c0.7-1.1,1.7-2,2.7-2.8c0.5-0.4,1.1-0.9,1.6-1.3c0.2-0.1,0.4-0.2,0.6-0.4c1.8-1,3.5-2.2,5.2-3.2l4.6-2.4c1.6-0.9,3.1-1.9,4.7-2.7
			c1.1-0.6,3.8-1.4,5.1-1.6c1.5-0.2,3-0.2,4.5,0.2c0.1,0,0.2-0.1,0.1-0.2c-0.3-1.1-1.3-2-2.5-2.1c-0.3,0-0.7-0.1-0.9-0.2
			c2.8-2.4,8.5-2.4,11.4-3.9c1.1-0.5,2.8-1.7,4.5-2.9c0.9,1.1,1.9,2.5,2.8,4.7c1.4,3.3,4,7.1,7.7,7.4c0.3-1.4,0.5-3,0.5-4.3
			c0.9,1.1,0.9,2.9,2.1,3.5c6.8,3.1,14.5-2.4,18.2-6.8c2.3-2.7,2.4-2.3,2-1.6c0,0-4.3,8-8.6,10.3c9.3,5.6,14.4-4.1,17.5-1.7
			c1.3-4,4.2-12.5,0.1-12.7c15.2,1,7.2-11.5,10.3-18.3C242.9,96.3,243.7,92.9,241.8,95.1z M210,116.1c-0.2-0.3-2.1-2.2-2.5-2.6
			c-2.1-2.1-5.9-3.4-7.3-3.8c-0.7-0.2-4.5-1.1-4.5-1.1c-2.2-0.4-3.7-1.5-4.7-2.9c-1.9-2.8-3.3-8.6-3.3-8.6c-0.5-2.7-2-4.3-4.8-5.9
			c-1.8-1-6.3-3.1-6.3-3.1s3.8,0,4.7,0.2c3,0.6,5.6,2,7.2,4c0.9,1,3,7,3.3,7.7c0.6,1.3,2,3.4,3.8,4.6c1.2,0.7,7.8,3,9.1,3.4
			c4,1.2,5.7,5.2,6.5,7.2c0.5,1.2,0.6,3,0.6,3S210.2,116.5,210,116.1z M233.3,107.1c-6,3-14.3,1.4-18.9-3.5
			c-1.8-1.9-3.4-4.3-7.1-4.9c-15.9-2.9-18.5-14.3-12.3-27.5c-2.7,7.7-0.9,19.2,9.2,22.5c7.2,2.1,8.7,3,12.5,3.4
			c7.4,0.7,12.6-11.3,5.2-17.5c-2.6-2.2-5.6-3.2-9.1-2.6c-3.7,0.6-4.5,3.6-1.4,5.2c1.8-6.5,12.4,0.4,7.4,4.8
			c0.6-1.5-0.2-2.8-0.9-3.8c-1.2-1.5-2.9-1.9-4.5,0.2c2.9,1.8,3.3,4.5,4.1,6.3c0.5,1.1-2.4-1.8-5.2-3.6c0,0-3.1-1.7-3.6-2.6
			c-0.4,2.4-0.7,3.7-0.2,5.8c0.5,2.3-0.8,0.3-0.8,0.3c-5-5.8-2.2-15.6,4.6-16.1c7.7-0.6,12.6,3.1,15.3,8c4.5,8.3,0,20.9-10.4,19.5
			c4.3,4.7,11,8,16.8,5.6C234,106.8,233.8,106.9,233.3,107.1z"/>
		<path d="M92.9,208.9c-6-7.9-15.2-16.2-20.7-20.1c-2.5-1.8-5-3.3-7.1-4.6c-7.3-0.6-15.1-0.6-23.3-0.1c-0.6-0.7-1.5-1.1-2.5-1.2
			c-2-0.1-3.6,1.4-3.7,3.4c-0.1,2,1.4,3.6,3.4,3.7c1.4,0.1,2.6-0.7,3.3-1.8c3.3-0.3,8.9-0.6,16.5-0.2c-4.3,0.7-8.6,1.6-13.1,2.7
			c-0.7-0.6-1.7-0.9-2.7-0.7c-2,0.3-3.3,2.1-3.1,4c0.3,2,2.1,3.3,4,3.1c1.4-0.2,2.5-1.1,2.9-2.4c3.4-0.9,9.5-2.3,17.8-3.2
			c-6.2,1.9-12.5,4.2-19,7.2c-0.8-0.4-1.8-0.5-2.7-0.2c-1.9,0.6-2.9,2.6-2.3,4.5c0.6,1.9,2.6,2.9,4.5,2.3c1.3-0.4,2.2-1.6,2.4-2.9
			c3.5-1.7,10.2-4.5,19.6-7.1c-5.9,2.9-11.9,6.4-18,10.5c-0.9-0.3-1.9-0.2-2.7,0.2c-1.8,0.9-2.4,3.1-1.5,4.8
			c0.9,1.8,3.1,2.4,4.8,1.5c1.2-0.6,1.9-1.9,1.9-3.2c3.6-2.5,11-7.2,21.9-12c-7.4,7-13.5,11.4-16.9,13.5c-1.2-0.5-2.8-0.4-3.8,0.6
			c-1.5,1.3-1.6,3.6-0.3,5.1s3.6,1.6,5.1,0.3c0.8-0.7,1.2-1.6,1.2-2.5c5.8-4.1,11.1-8.3,15.8-12.7c-5.1,5.3-10.4,11.1-15.7,17.4
			c-1,0-1.9,0.5-2.6,1.2c-1.4,1.5-1.3,3.9,0.3,5.3c1.5,1.4,3.9,1.3,5.3-0.3c1-1.1,1.2-2.7,0.7-4c4.6-4.9,9.6-11.3,17.6-19.5
			c-4.9,9.5-9.6,15.8-12.1,18.9c-1.3-0.1-2.7,0.5-3.4,1.7c-1,1.7-0.4,3.9,1.3,4.8c1.7,1,3.9,0.4,4.8-1.3c0.5-0.9,0.6-1.8,0.3-2.7
			c4.8-6.5,8.9-13,12.3-19.5c-3.3,10.9-7,18.4-9.1,22.1c-1.3,0.1-2.5,1-3,2.3c-0.7,1.8,0.3,3.9,2.1,4.5c1.8,0.7,3.9-0.3,4.5-2.1
			c0.3-0.9,0.3-1.9-0.1-2.7c3.4-6.9,6.2-13.6,8.4-20.2c-1,10.1-2.7,17.3-3.8,21.1c-1.3,0.4-2.3,1.5-2.5,2.9c-0.3,1.9,1.1,3.7,3,4
			c1.9,0.3,3.7-1.1,4-3c0.1-1-0.2-1.9-0.7-2.6c1.6-6.3,2.7-12.4,3.4-18.4c0.8,9.2,0.5,16,0.2,19.7c-1.2,0.6-1.9,1.9-1.8,3.3
			c0.1,1.9,1.8,3.4,3.8,3.3c1.9-0.1,3.4-1.8,3.3-3.8c-0.1-1-0.5-1.8-1.2-2.4C93.9,223.7,93.7,216.1,92.9,208.9z"/>
	</g>
</g>
</svg>
